<svg width="26" height="24" viewBox="0 0 26 24" fill="none" xmlns="http://www.w3.org/2000/svg">
<path d="M17.4551 0C21.8363 1.55963e-05 25.3896 3.35851 25.3896 7.5V16.5C25.3896 20.6415 21.8363 24 17.4551 24H7.93457C3.55335 24 0 20.6415 0 16.5V7.5C0 3.3585 3.55335 0 7.93457 0H17.4551ZM7.93359 2.25C4.87121 2.25021 2.37988 4.60513 2.37988 7.5V16.5C2.37988 19.3949 4.87121 21.7498 7.93359 21.75H17.4551C20.5176 21.7499 23.0088 19.395 23.0088 16.5V7.5C23.0088 4.60504 20.5176 2.25007 17.4551 2.25H7.93359ZM12.6943 6C16.1996 6 19.042 8.6865 19.042 12C19.042 15.3135 16.1996 18 12.6943 18C9.18911 17.9999 6.34766 15.3135 6.34766 12C6.34766 8.68654 9.18911 6.00007 12.6943 6ZM12.6943 8.25C10.5078 8.25008 8.72754 9.93155 8.72754 12C8.72754 14.067 10.5078 15.7499 12.6943 15.75C14.881 15.75 16.6611 14.067 16.6611 12C16.6611 9.9315 14.881 8.25 12.6943 8.25ZM19.5176 4.75C19.9847 4.75 20.3633 5.10825 20.3633 5.5498C20.3631 5.99122 19.9846 6.34863 19.5176 6.34863C19.0506 6.34858 18.672 5.99118 18.6719 5.5498C18.6719 5.10829 19.0505 4.75006 19.5176 4.75Z" fill="#A4A4A4"/>
</svg>
