<svg width="24" height="24" viewBox="0 0 24 24" fill="none" xmlns="http://www.w3.org/2000/svg">
<path fill-rule="evenodd" clip-rule="evenodd" d="M20.1582 3.4455C17.9401 1.22472 14.9901 0.00131719 11.8473 0C5.37149 0 0.10116 5.27007 0.0985256 11.7477C0.0977353 13.8183 0.638572 15.8394 1.66677 17.6213L0 23.7094L6.22819 22.0755C7.94422 23.0115 9.87627 23.5049 11.8426 23.5055H11.8473C11.847 23.5055 11.8476 23.5055 11.8473 23.5055C18.3223 23.5055 23.5932 18.2349 23.5958 11.757C23.5971 8.61783 22.3764 5.66628 20.1582 3.4455ZM7.07619 12.1753C6.92946 11.9793 5.87755 10.5836 5.87755 9.13865C5.87755 7.69369 6.63599 6.98346 6.90496 6.68973C7.17393 6.396 7.49216 6.3225 7.6879 6.3225C7.88363 6.3225 8.07963 6.32434 8.2506 6.33277C8.43079 6.34199 8.67289 6.26428 8.91104 6.83673C9.15577 7.42446 9.74271 8.86968 9.81621 9.01641C9.88971 9.16341 9.93844 9.33464 9.84071 9.53064C9.74297 9.72638 9.69397 9.84887 9.54724 10.0204C9.4005 10.1919 9.23902 10.4031 9.10677 10.5346C8.95977 10.6811 8.80671 10.8399 8.97795 11.1337C9.14918 11.4277 9.73823 12.3889 10.611 13.1674C11.7322 14.1677 12.6782 14.4775 12.9717 14.6245C13.2651 14.7715 13.4364 14.747 13.6076 14.551C13.7788 14.355 14.3415 13.6937 14.5373 13.4C14.733 13.1063 14.9287 13.1553 15.1977 13.253C15.4669 13.351 16.9101 14.0612 17.2035 14.208C17.497 14.355 17.6927 14.4285 17.7662 14.551C17.8397 14.6735 17.8397 15.2612 17.595 15.9469C17.3503 16.6327 16.1774 17.2586 15.6134 17.3426C15.1076 17.4182 14.4677 17.4498 13.7643 17.2262C13.3381 17.091 12.7912 16.9103 12.0907 16.6079C9.14629 15.3363 7.22319 12.3713 7.07619 12.1753Z" fill="white"/>
</svg>
