<svg width="31" height="21" viewBox="0 0 31 21" fill="none" xmlns="http://www.w3.org/2000/svg">
<path fill-rule="evenodd" clip-rule="evenodd" d="M3.13358 20.3362C1.96279 19.876 1.26031 19.1859 0.791992 18.0355C-0.144646 15.2748 -0.612964 3.77163 1.49447 1.70106C2.19695 1.01087 3.13358 0.550743 4.07022 0.32068C9.22173 -0.139447 25.6129 -0.139447 27.4862 0.550743C28.6569 1.01087 29.3594 1.70106 29.8277 2.62131C30.9985 5.38207 30.9985 15.7349 29.5936 18.4957C29.3594 19.1859 28.6569 19.646 27.9545 20.1061C25.847 21.2564 5.70934 21.2564 3.13358 20.3362ZM11.5633 15.0447C14.6074 13.4343 17.8856 11.8238 20.9297 10.2134C17.8856 8.60295 14.6074 6.99251 11.5633 5.38207C11.5633 8.60295 11.5633 11.8238 11.5633 15.0447Z" fill="#A4A4A4"/>
</svg>
