<svg width="64" height="64" viewBox="0 0 64 64" fill="none" xmlns="http://www.w3.org/2000/svg">
<rect width="64" height="64" rx="32" fill="#191818"/>
<path d="M32 19C29.4288 19 26.9154 19.7624 24.7776 21.1909C22.6398 22.6194 20.9735 24.6497 19.9896 27.0251C19.0056 29.4006 18.7482 32.0144 19.2498 34.5362C19.7514 37.0579 20.9895 39.3743 22.8076 41.1924C24.6257 43.0105 26.9421 44.2486 29.4638 44.7502C31.9856 45.2518 34.5995 44.9944 36.9749 44.0104C39.3503 43.0265 41.3807 41.3603 42.8091 39.2224C44.2376 37.0846 45 34.5712 45 32C44.9964 28.5533 43.6256 25.2488 41.1884 22.8116C38.7512 20.3744 35.4467 19.0036 32 19ZM27.5 28C27.7967 28 28.0867 28.088 28.3334 28.2528C28.58 28.4176 28.7723 28.6519 28.8858 28.926C28.9994 29.2001 29.0291 29.5017 28.9712 29.7926C28.9133 30.0836 28.7704 30.3509 28.5607 30.5607C28.3509 30.7704 28.0836 30.9133 27.7926 30.9712C27.5017 31.0291 27.2001 30.9994 26.926 30.8858C26.6519 30.7723 26.4176 30.58 26.2528 30.3334C26.088 30.0867 26 29.7967 26 29.5C26 29.1022 26.158 28.7206 26.4393 28.4393C26.7206 28.158 27.1022 28 27.5 28ZM37.865 35.5C36.5788 37.7238 34.4413 39 32 39C29.5588 39 27.4213 37.725 26.135 35.5C26.0627 35.3862 26.0141 35.2589 25.9922 35.1258C25.9703 34.9927 25.9755 34.8566 26.0076 34.7256C26.0397 34.5946 26.098 34.4715 26.1789 34.3636C26.2598 34.2557 26.3617 34.1652 26.4785 34.0978C26.5952 34.0303 26.7245 33.9871 26.8583 33.9708C26.9922 33.9546 27.128 33.9655 27.2575 34.0031C27.3871 34.0407 27.5077 34.1041 27.6121 34.1895C27.7164 34.2749 27.8025 34.3805 27.865 34.5C28.7988 36.1138 30.2663 37 32 37C33.7338 37 35.2013 36.1125 36.135 34.5C36.1975 34.3805 36.2836 34.2749 36.388 34.1895C36.4924 34.1041 36.6129 34.0407 36.7425 34.0031C36.872 33.9655 37.0078 33.9546 37.1417 33.9708C37.2756 33.9871 37.4048 34.0303 37.5215 34.0978C37.6383 34.1652 37.7402 34.2557 37.8211 34.3636C37.902 34.4715 37.9603 34.5946 37.9924 34.7256C38.0245 34.8566 38.0297 34.9927 38.0078 35.1258C37.9859 35.2589 37.9374 35.3862 37.865 35.5ZM36.5 31C36.2033 31 35.9133 30.912 35.6667 30.7472C35.42 30.5824 35.2277 30.3481 35.1142 30.074C35.0007 29.7999 34.971 29.4983 35.0288 29.2074C35.0867 28.9164 35.2296 28.6491 35.4393 28.4393C35.6491 28.2296 35.9164 28.0867 36.2074 28.0288C36.4983 27.9709 36.7999 28.0006 37.074 28.1142C37.3481 28.2277 37.5824 28.42 37.7472 28.6666C37.912 28.9133 38 29.2033 38 29.5C38 29.8978 37.842 30.2794 37.5607 30.5607C37.2794 30.842 36.8978 31 36.5 31Z" fill="#D0CFCD"/>
</svg>
