<svg width="64" height="64" viewBox="0 0 64 64" fill="none" xmlns="http://www.w3.org/2000/svg">
<rect width="64" height="64" rx="32" fill="#191818"/>
<path d="M46 28.75C46 37.5 33.0262 44.5825 32.4737 44.875C32.3281 44.9533 32.1654 44.9943 32 44.9943C31.8346 44.9943 31.6719 44.9533 31.5262 44.875C30.9738 44.5825 18 37.5 18 28.75C18.0023 26.6953 18.8196 24.7254 20.2725 23.2725C21.7254 21.8196 23.6953 21.0023 25.75 21C28.3313 21 30.5912 22.11 32 23.9862C33.4088 22.11 35.6688 21 38.25 21C40.3047 21.0023 42.2746 21.8196 43.7275 23.2725C45.1804 24.7254 45.9977 26.6953 46 28.75Z" fill="#D0CFCD"/>
</svg>
