<svg width="64" height="64" viewBox="0 0 64 64" fill="none" xmlns="http://www.w3.org/2000/svg">
<rect width="64" height="64" rx="32" fill="#191818"/>
<path d="M46 42H45V25C45 24.7348 44.8946 24.4804 44.7071 24.2929C44.5196 24.1054 44.2652 24 44 24H39V21C39 20.7348 38.8946 20.4804 38.7071 20.2929C38.5196 20.1054 38.2652 20 38 20H26C25.7348 20 25.4804 20.1054 25.2929 20.2929C25.1054 20.4804 25 20.7348 25 21V28H20C19.7348 28 19.4804 28.1054 19.2929 28.2929C19.1054 28.4804 19 28.7348 19 29V42H18C17.7348 42 17.4804 42.1054 17.2929 42.2929C17.1054 42.4804 17 42.7348 17 43C17 43.2652 17.1054 43.5196 17.2929 43.7071C17.4804 43.8946 17.7348 44 18 44H46C46.2652 44 46.5196 43.8946 46.7071 43.7071C46.8946 43.5196 47 43.2652 47 43C47 42.7348 46.8946 42.4804 46.7071 42.2929C46.5196 42.1054 46.2652 42 46 42ZM26 38H24C23.7348 38 23.4804 37.8946 23.2929 37.7071C23.1054 37.5196 23 37.2652 23 37C23 36.7348 23.1054 36.4804 23.2929 36.2929C23.4804 36.1054 23.7348 36 24 36H26C26.2652 36 26.5196 36.1054 26.7071 36.2929C26.8946 36.4804 27 36.7348 27 37C27 37.2652 26.8946 37.5196 26.7071 37.7071C26.5196 37.8946 26.2652 38 26 38ZM26 34H24C23.7348 34 23.4804 33.8946 23.2929 33.7071C23.1054 33.5196 23 33.2652 23 33C23 32.7348 23.1054 32.4804 23.2929 32.2929C23.4804 32.1054 23.7348 32 24 32H26C26.2652 32 26.5196 32.1054 26.7071 32.2929C26.8946 32.4804 27 32.7348 27 33C27 33.2652 26.8946 33.5196 26.7071 33.7071C26.5196 33.8946 26.2652 34 26 34ZM34 42H30V37H34V42ZM33 34H31C30.7348 34 30.4804 33.8946 30.2929 33.7071C30.1054 33.5196 30 33.2652 30 33C30 32.7348 30.1054 32.4804 30.2929 32.2929C30.4804 32.1054 30.7348 32 31 32H33C33.2652 32 33.5196 32.1054 33.7071 32.2929C33.8946 32.4804 34 32.7348 34 33C34 33.2652 33.8946 33.5196 33.7071 33.7071C33.5196 33.8946 33.2652 34 33 34ZM33 30H31C30.7348 30 30.4804 29.8946 30.2929 29.7071C30.1054 29.5196 30 29.2652 30 29C30 28.7348 30.1054 28.4804 30.2929 28.2929C30.4804 28.1054 30.7348 28 31 28H33C33.2652 28 33.5196 28.1054 33.7071 28.2929C33.8946 28.4804 34 28.7348 34 29C34 29.2652 33.8946 29.5196 33.7071 29.7071C33.5196 29.8946 33.2652 30 33 30ZM33 26H31C30.7348 26 30.4804 25.8946 30.2929 25.7071C30.1054 25.5196 30 25.2652 30 25C30 24.7348 30.1054 24.4804 30.2929 24.2929C30.4804 24.1054 30.7348 24 31 24H33C33.2652 24 33.5196 24.1054 33.7071 24.2929C33.8946 24.4804 34 24.7348 34 25C34 25.2652 33.8946 25.5196 33.7071 25.7071C33.5196 25.8946 33.2652 26 33 26ZM40 38H38C37.7348 38 37.4804 37.8946 37.2929 37.7071C37.1054 37.5196 37 37.2652 37 37C37 36.7348 37.1054 36.4804 37.2929 36.2929C37.4804 36.1054 37.7348 36 38 36H40C40.2652 36 40.5196 36.1054 40.7071 36.2929C40.8946 36.4804 41 36.7348 41 37C41 37.2652 40.8946 37.5196 40.7071 37.7071C40.5196 37.8946 40.2652 38 40 38ZM40 34H38C37.7348 34 37.4804 33.8946 37.2929 33.7071C37.1054 33.5196 37 33.2652 37 33C37 32.7348 37.1054 32.4804 37.2929 32.2929C37.4804 32.1054 37.7348 32 38 32H40C40.2652 32 40.5196 32.1054 40.7071 32.2929C40.8946 32.4804 41 32.7348 41 33C41 33.2652 40.8946 33.5196 40.7071 33.7071C40.5196 33.8946 40.2652 34 40 34ZM40 30H38C37.7348 30 37.4804 29.8946 37.2929 29.7071C37.1054 29.5196 37 29.2652 37 29C37 28.7348 37.1054 28.4804 37.2929 28.2929C37.4804 28.1054 37.7348 28 38 28H40C40.2652 28 40.5196 28.1054 40.7071 28.2929C40.8946 28.4804 41 28.7348 41 29C41 29.2652 40.8946 29.5196 40.7071 29.7071C40.5196 29.8946 40.2652 30 40 30Z" fill="#D0CFCD"/>
</svg>
