<svg width="789" height="198" viewBox="0 0 789 198" fill="none" xmlns="http://www.w3.org/2000/svg">
<path d="M178.72 49.52H162.52C162.98 42.6 165.83 37.5801 171.08 34.4601C176.33 31.3401 182.72 29.78 190.24 29.78C207.5 29.78 216.13 35.37 216.13 46.55V77.2301C216.13 83.7701 216.81 88.1401 218.18 90.3501H201.75C201.07 88.2201 200.68 86.32 200.61 84.65C195.97 89.52 189.35 91.9501 180.76 91.9501C174.83 91.9501 170 90.4501 166.27 87.4401C162.54 84.4401 160.68 80.05 160.68 74.27C160.68 71.38 161.19 68.8501 162.22 66.6901C163.25 64.5201 164.46 62.8301 165.87 61.6101C167.28 60.3901 169.2 59.3501 171.63 58.4701C174.06 57.6001 176.17 57.0101 177.96 56.7001C179.75 56.4001 182.05 56.09 184.86 55.79C190.64 55.18 194.59 54.4401 196.72 53.5701C198.85 52.7001 199.91 51.0401 199.91 48.6101C199.91 45.4901 199 43.38 197.17 42.28C195.35 41.18 192.76 40.63 189.41 40.63C182.79 40.63 179.22 43.6 178.69 49.53L178.72 49.52ZM199.94 67.54V61.4901C198.65 62.7101 195.38 63.6601 190.13 64.3401C188 64.6401 186.33 64.9301 185.11 65.2001C183.89 65.4701 182.56 65.9201 181.12 66.5701C179.67 67.2201 178.61 68.11 177.93 69.25C177.25 70.39 176.9 71.8401 176.9 73.5801C176.9 78.6001 180.21 81.1101 186.82 81.1101C195.56 81.1101 199.94 76.59 199.94 67.54Z" fill="white"/>
<path d="M224.57 90.3601V8.91003H240.77V90.3601H224.57Z" fill="white"/>
<path d="M248.98 90.3601V8.91003H265.18V38.5701H265.41C269.29 32.7101 275.49 29.79 284 29.79C290.54 29.79 296.24 32.45 301.11 37.78C305.98 43.1 308.41 50.7801 308.41 60.8201C308.41 70.8601 305.98 78.56 301.11 83.92C296.24 89.28 290.54 91.9601 284 91.9601C274.42 91.9601 267.95 88.9201 264.61 82.8401H264.38V90.3701H248.98V90.3601ZM292.21 60.9301C292.21 55.5301 291.05 51.03 288.73 47.41C286.41 43.8 282.97 41.9901 278.41 41.9901C273.85 41.9901 270.41 43.8 268.09 47.41C265.77 51.02 264.61 55.5301 264.61 60.9301C264.61 66.3301 265.79 70.7201 268.15 74.3301C270.51 77.9401 273.93 79.75 278.42 79.75C282.91 79.75 286.33 77.9401 288.69 74.3301C291.05 70.7201 292.23 66.2501 292.23 60.9301H292.21Z" fill="white"/>
<path d="M369.44 31.38V90.3501H354.04V82.14H353.7C351.72 85.33 349.12 87.7701 345.89 89.4401C342.66 91.1101 339.25 91.9501 335.68 91.9501C327.54 91.9501 321.91 89.9 318.8 85.79C315.68 81.68 314.12 75.64 314.12 67.65V31.38H330.32V64.6901C330.32 69.6301 331.12 73.28 332.72 75.64C334.32 78 336.98 79.1801 340.7 79.1801C345.11 79.1801 348.3 77.8501 350.28 75.1901C352.26 72.5301 353.25 68.23 353.25 62.3V31.39H369.45L369.44 31.38Z" fill="white"/>
<path d="M434.69 31.38V111.11H418.49V82.9401H418.26C416.51 85.9801 413.94 88.2401 410.56 89.7301C407.18 91.2101 403.54 91.9501 399.67 91.9501C396.78 91.9501 393.95 91.4 391.17 90.3C388.39 89.2 385.73 87.5101 383.18 85.2201C380.63 82.9401 378.58 79.7301 377.02 75.5801C375.46 71.4401 374.68 66.66 374.68 61.26C374.68 52.52 376.98 45.0801 381.58 38.9601C386.18 32.8401 392.7 29.78 401.14 29.78C409.58 29.78 415.63 32.82 419.05 38.91H419.28V31.38H434.68H434.69ZM394.37 47.41C392.05 51.02 390.89 55.5301 390.89 60.9301C390.89 66.3301 391.99 70.82 394.2 74.39C396.41 77.97 399.98 79.75 404.92 79.75C409.86 79.75 413.36 78 415.64 74.5C417.92 71 419.06 66.55 419.06 61.15C419.06 55.75 417.94 51.4 415.69 47.63C413.45 43.87 409.97 41.9801 405.25 41.9801C400.53 41.9801 396.68 43.79 394.36 47.4L394.37 47.41Z" fill="white"/>
<path d="M497.65 31.38V90.3501H482.25V82.14H481.91C479.93 85.33 477.33 87.7701 474.1 89.4401C470.87 91.1101 467.46 91.9501 463.89 91.9501C455.75 91.9501 450.12 89.9 447.01 85.79C443.89 81.68 442.33 75.64 442.33 67.65V31.38H458.53V64.6901C458.53 69.6301 459.33 73.28 460.93 75.64C462.53 78 465.19 79.1801 468.91 79.1801C473.32 79.1801 476.51 77.8501 478.49 75.1901C480.47 72.5301 481.46 68.23 481.46 62.3V31.39H497.66L497.65 31.38Z" fill="white"/>
<path d="M561.3 64.8101H518.75C519.21 74.7701 524.04 79.75 533.24 79.75C536.36 79.75 539.13 78.97 541.57 77.41C544 75.85 545.49 74.0801 546.02 72.1101H560.28C555.95 85.3401 546.74 91.9601 532.68 91.9601C523.48 91.9601 516.16 89.0901 510.72 83.3501C505.28 77.6101 502.56 70.1401 502.56 60.9401C502.56 51.7401 505.35 44.53 510.94 38.64C516.53 32.75 523.77 29.8 532.67 29.8C542.25 29.8 549.59 33.2201 554.69 40.0701C559.78 46.9101 561.99 55.1701 561.31 64.8201L561.3 64.8101ZM518.75 54.54H545.1C544.34 50.28 542.95 47.1201 540.94 45.0701C538.92 43.0201 536.02 41.9901 532.21 41.9901C527.57 41.9901 524.23 43.3001 522.17 45.9301C520.12 48.5501 518.98 51.42 518.75 54.54Z" fill="white"/>
<path d="M566.32 90.3601V31.39H581.72V42.3401H581.95C583.47 38.6201 585.98 35.59 589.48 33.27C592.98 30.95 596.74 29.79 600.77 29.79C601.83 29.79 603.01 29.9801 604.31 30.3601V45.42C602.64 45.04 600.7 44.8501 598.49 44.8501C587.84 44.8501 582.52 51.16 582.52 63.79V90.3701H566.32V90.3601Z" fill="white"/>
<path d="M661.57 31.38V111.11H645.37V82.9401H645.14C643.39 85.9801 640.82 88.2401 637.44 89.7301C634.06 91.2101 630.42 91.9501 626.55 91.9501C623.66 91.9501 620.83 91.4 618.05 90.3C615.27 89.2 612.61 87.5101 610.07 85.2201C607.52 82.9401 605.47 79.7301 603.91 75.5801C602.35 71.4401 601.57 66.66 601.57 61.26C601.57 52.52 603.87 45.0801 608.47 38.9601C613.07 32.8401 619.59 29.78 628.03 29.78C636.47 29.78 642.52 32.82 645.94 38.91H646.17V31.38H661.57ZM621.25 47.41C618.93 51.02 617.77 55.5301 617.77 60.9301C617.77 66.3301 618.87 70.82 621.08 74.39C623.28 77.97 626.86 79.75 631.8 79.75C636.74 79.75 640.24 78 642.52 74.5C644.8 71 645.94 66.55 645.94 61.15C645.94 55.75 644.82 51.4 642.57 47.63C640.33 43.87 636.85 41.9801 632.13 41.9801C627.41 41.9801 623.56 43.79 621.24 47.4L621.25 47.41Z" fill="white"/>
<path d="M724.53 31.38V90.3501H709.13V82.14H708.79C706.81 85.33 704.21 87.7701 700.98 89.4401C697.75 91.1101 694.34 91.9501 690.77 91.9501C682.63 91.9501 677.01 89.9 673.89 85.79C670.77 81.68 669.21 75.64 669.21 67.65V31.38H685.41V64.6901C685.41 69.6301 686.21 73.28 687.81 75.64C689.41 78 692.07 79.1801 695.79 79.1801C700.2 79.1801 703.39 77.8501 705.37 75.1901C707.35 72.5301 708.34 68.23 708.34 62.3V31.39H724.54L724.53 31.38Z" fill="white"/>
<path d="M788.18 64.8101H745.63C746.09 74.7701 750.91 79.75 760.12 79.75C763.24 79.75 766.01 78.97 768.45 77.41C770.88 75.85 772.37 74.0801 772.9 72.1101H787.16C782.83 85.3401 773.62 91.9601 759.56 91.9601C750.36 91.9601 743.04 89.0901 737.6 83.3501C732.16 77.6101 729.44 70.1401 729.44 60.9401C729.44 51.7401 732.23 44.53 737.82 38.64C743.41 32.75 750.65 29.8 759.55 29.8C769.13 29.8 776.47 33.2201 781.57 40.0701C786.66 46.9101 788.87 55.1701 788.19 64.8201L788.18 64.8101ZM745.63 54.54H771.98C771.22 50.28 769.83 47.1201 767.82 45.0701C765.8 43.0201 762.9 41.9901 759.09 41.9901C754.45 41.9901 751.11 43.3001 749.05 45.9301C747 48.5501 745.86 51.42 745.63 54.54Z" fill="white"/>
<path d="M328.52 172.05H305.58C305.58 175.09 306.42 177.81 308.09 180.2C309.77 182.59 312.2 183.78 315.4 183.78C320.37 183.78 323.49 181.24 324.76 176.15H328.4C326.74 183.28 322.41 186.84 315.4 186.84C310.93 186.84 307.57 185.36 305.32 182.39C303.07 179.42 301.94 175.65 301.94 171.06C301.94 168.29 302.38 165.75 303.27 163.46C304.16 161.17 305.65 159.23 307.75 157.65C309.85 156.07 312.4 155.28 315.41 155.28C318.42 155.28 321 156.11 323.07 157.76C325.13 159.42 326.58 161.48 327.43 163.94C328.28 166.41 328.64 169.1 328.53 172.03L328.52 172.05ZM305.58 168.99H324.88C324.8 166.1 323.9 163.61 322.16 161.51C320.43 159.41 318.17 158.36 315.4 158.36C312.63 158.36 310.33 159.39 308.64 161.45C306.94 163.51 305.92 166.03 305.58 168.99Z" fill="white"/>
<path d="M339.15 185.98V156.16H342.79V161.3H342.91C343.6 159.53 344.84 158.08 346.61 156.97C348.38 155.85 350.33 155.29 352.45 155.29C356.46 155.29 359.28 156.26 360.92 158.21C362.56 160.16 363.38 163.02 363.38 166.79V185.97H359.74V167.36C359.74 161.35 357.22 158.35 352.17 158.35C349.32 158.35 347.07 159.3 345.41 161.21C343.75 163.12 342.89 165.57 342.81 168.58V185.97H339.17L339.15 185.98Z" fill="white"/>
<path d="M401.21 156.16V183.55C401.21 188.21 400.17 191.76 398.09 194.21C396.01 196.66 392.64 197.88 387.98 197.88C384.71 197.88 381.88 197.12 379.51 195.6C377.14 194.08 375.84 191.83 375.61 188.87H379.25C379.6 190.91 380.58 192.41 382.2 193.38C383.82 194.34 385.74 194.82 387.98 194.82C391.29 194.82 393.72 193.88 395.26 191.99C396.8 190.1 397.57 187.29 397.57 183.55V179.51H397.45C396.6 181.4 395.34 182.89 393.66 183.99C391.98 185.09 390.09 185.64 387.97 185.64C383.42 185.64 380.04 184.23 377.83 181.42C375.61 178.61 374.51 174.91 374.51 170.33C374.51 166.05 375.71 162.48 378.12 159.61C380.53 156.74 383.81 155.31 387.97 155.31C390.09 155.31 392.01 155.88 393.72 157.01C395.43 158.15 396.68 159.58 397.45 161.31H397.57V156.17H401.21V156.16ZM387.98 182.57C390.98 182.57 393.33 181.4 395.03 179.07C396.72 176.74 397.57 173.96 397.57 170.72C397.57 167.48 396.77 164.52 395.17 162.05C393.57 159.59 391.17 158.35 387.98 158.35C384.79 158.35 382.3 159.55 380.64 161.96C378.98 164.37 378.16 167.29 378.16 170.71C378.16 174.13 379 176.78 380.67 179.09C382.34 181.4 384.78 182.56 387.98 182.56V182.57Z" fill="white"/>
<path d="M439 172.05H416.06C416.06 175.09 416.9 177.81 418.57 180.2C420.25 182.59 422.68 183.78 425.88 183.78C430.85 183.78 433.97 181.24 435.24 176.15H438.88C437.22 183.28 432.89 186.84 425.88 186.84C421.41 186.84 418.05 185.36 415.8 182.39C413.55 179.42 412.42 175.65 412.42 171.06C412.42 168.29 412.86 165.75 413.75 163.46C414.64 161.17 416.13 159.23 418.23 157.65C420.33 156.07 422.88 155.28 425.89 155.28C428.9 155.28 431.49 156.11 433.55 157.76C435.61 159.42 437.07 161.48 437.91 163.94C438.76 166.41 439.12 169.1 439.01 172.03L439 172.05ZM416.06 168.99H435.36C435.28 166.1 434.38 163.61 432.64 161.51C430.91 159.41 428.65 158.36 425.88 158.36C423.11 158.36 420.81 159.39 419.12 161.45C417.42 163.51 416.4 166.03 416.06 168.99Z" fill="white"/>
<path d="M449.63 185.98V156.16H453.27V161.3H453.39C454.08 159.53 455.32 158.08 457.09 156.97C458.86 155.85 460.81 155.29 462.93 155.29C466.94 155.29 469.76 156.26 471.4 158.21C473.04 160.16 473.86 163.02 473.86 166.79V185.97H470.22V167.36C470.22 161.35 467.7 158.35 462.65 158.35C459.8 158.35 457.55 159.3 455.89 161.21C454.23 163.12 453.37 165.57 453.29 168.58V185.97H449.65L449.63 185.98Z" fill="white"/>
<path d="M486.44 185.98V144.72H490.08V161.3H490.2C490.89 159.53 492.13 158.08 493.9 156.97C495.67 155.85 497.62 155.29 499.74 155.29C503.75 155.29 506.57 156.26 508.21 158.21C509.85 160.16 510.67 163.02 510.67 166.79V185.97H507.03V167.36C507.03 161.35 504.51 158.35 499.46 158.35C496.61 158.35 494.36 159.3 492.7 161.21C491.04 163.12 490.18 165.57 490.1 168.58V185.97H486.46L486.44 185.98Z" fill="white"/>
<path d="M526.6 165.29H522.96C523.15 161.9 524.32 159.39 526.46 157.75C528.6 156.11 531.46 155.29 535.04 155.29C542.36 155.29 546.02 158.49 546.02 164.88V180.71C546.02 182.17 546.73 182.91 548.16 182.91C548.58 182.91 548.97 182.83 549.32 182.68V185.74C548.55 185.89 547.76 185.97 546.95 185.97C545.25 185.97 544.12 185.54 543.54 184.67C542.96 183.8 542.67 182.5 542.67 180.77H542.55C541.12 182.89 539.63 184.43 538.07 185.39C536.51 186.35 534.38 186.84 531.69 186.84C528.76 186.84 526.36 186.11 524.5 184.64C522.63 183.18 521.7 181 521.7 178.11C521.7 177.03 521.85 176.06 522.16 175.19C522.47 174.32 522.82 173.59 523.23 172.99C523.63 172.39 524.27 171.85 525.14 171.37C526.01 170.89 526.75 170.52 527.36 170.27C527.98 170.02 528.91 169.78 530.16 169.55C531.41 169.32 532.36 169.16 533.02 169.06C533.67 168.96 534.73 168.84 536.2 168.68C536.85 168.6 537.36 168.55 537.7 168.51C539.4 168.36 540.6 168.02 541.31 167.5C542.02 166.98 542.38 165.97 542.38 164.47C542.38 162.2 541.69 160.61 540.3 159.7C538.91 158.8 537.01 158.34 534.58 158.34C532.15 158.34 530.28 158.91 528.86 160.04C527.43 161.18 526.68 162.92 526.61 165.27L526.6 165.29ZM542.37 174.42V169.68H542.25C541.94 170.26 540.92 170.7 539.19 171.01C538.53 171.13 537.49 171.29 536.07 171.5C534.64 171.71 533.55 171.89 532.78 172.02C532.01 172.16 531.07 172.39 529.98 172.71C528.88 173.04 528.05 173.39 527.5 173.78C526.94 174.17 526.44 174.71 526 175.43C525.56 176.14 525.34 176.96 525.34 177.89C525.34 179.66 525.99 181.09 527.3 182.17C528.61 183.25 530.17 183.79 531.98 183.79C534.91 183.79 537.37 182.93 539.38 181.22C541.38 179.51 542.38 177.24 542.38 174.43L542.37 174.42Z" fill="white"/>
<path d="M559.08 185.98V156.16H562.43V163.15H562.55C563.47 160.69 564.92 158.81 566.88 157.52C568.84 156.23 571.16 155.64 573.81 155.76V159.4C570.57 159.25 567.92 160.2 565.84 162.26C563.76 164.32 562.72 166.93 562.72 170.09V185.98H559.08Z" fill="white"/>
<path d="M583.11 150.56V144.72H586.75V150.56H583.11ZM583.11 185.98V156.16H586.75V185.98H583.11Z" fill="white"/>
<path d="M602.82 165.29H599.18C599.37 161.9 600.54 159.39 602.68 157.75C604.82 156.11 607.68 155.29 611.26 155.29C618.58 155.29 622.24 158.49 622.24 164.88V180.71C622.24 182.17 622.95 182.91 624.38 182.91C624.8 182.91 625.19 182.83 625.54 182.68V185.74C624.77 185.89 623.98 185.97 623.17 185.97C621.47 185.97 620.34 185.54 619.76 184.67C619.18 183.8 618.89 182.5 618.89 180.77H618.77C617.34 182.89 615.85 184.43 614.29 185.39C612.73 186.35 610.6 186.84 607.91 186.84C604.98 186.84 602.58 186.11 600.72 184.64C598.85 183.18 597.92 181 597.92 178.11C597.92 177.03 598.07 176.06 598.38 175.19C598.69 174.32 599.04 173.59 599.45 172.99C599.85 172.39 600.49 171.85 601.36 171.37C602.23 170.89 602.97 170.52 603.58 170.27C604.2 170.02 605.13 169.78 606.38 169.55C607.63 169.32 608.58 169.16 609.24 169.06C609.89 168.96 610.95 168.84 612.42 168.68C613.07 168.6 613.58 168.55 613.92 168.51C615.61 168.36 616.82 168.02 617.53 167.5C618.24 166.98 618.6 165.97 618.6 164.47C618.6 162.2 617.91 160.61 616.52 159.7C615.13 158.8 613.23 158.34 610.8 158.34C608.37 158.34 606.5 158.91 605.08 160.04C603.65 161.18 602.9 162.92 602.83 165.27L602.82 165.29ZM618.59 174.42V169.68H618.47C618.16 170.26 617.14 170.7 615.41 171.01C614.75 171.13 613.71 171.29 612.29 171.5C610.86 171.71 609.77 171.89 609 172.02C608.23 172.16 607.3 172.39 606.2 172.71C605.1 173.04 604.27 173.39 603.72 173.78C603.16 174.17 602.66 174.71 602.22 175.43C601.78 176.14 601.56 176.96 601.56 177.89C601.56 179.66 602.21 181.09 603.52 182.17C604.83 183.25 606.39 183.79 608.2 183.79C611.13 183.79 613.59 182.93 615.6 181.22C617.6 179.51 618.6 177.24 618.6 174.43L618.59 174.42Z" fill="white"/>
<path d="M54.59 23.2301C37.27 23.2301 23.23 37.2701 23.23 54.5901H0C0 24.4401 24.44 0 54.59 0V23.2301Z" fill="#CCCCCC"/>
<path d="M109.18 54.5901C109.18 84.7401 84.74 109.18 54.59 109.18C24.44 109.18 0 84.7401 0 54.5901H23.23C23.23 71.9101 37.27 85.9501 54.59 85.9501C71.91 85.9501 85.95 71.9101 85.95 54.5901H109.18Z" fill="#CCCCCC"/>
<path d="M115.37 85.9501H54.5898V109.18H115.37V85.9501Z" fill="#CCCCCC"/>
<path d="M54.5898 23.2301V54.5901H85.9498L54.5898 23.2301Z" fill="#CCCCCC"/>
</svg>
