<svg width="362" height="343" viewBox="0 0 362 343" fill="none" xmlns="http://www.w3.org/2000/svg">
<path d="M171.21 72.8501C116.89 72.8501 72.86 116.89 72.86 171.2H0C0 76.6602 76.65 0 171.2 0V72.8604L171.21 72.8501Z" fill="#222222"/>
<path d="M342.41 171.2C342.41 265.75 265.76 342.4 171.21 342.4C76.6598 342.4 0.00976562 265.75 0.00976562 171.2H72.8698C72.8698 225.52 116.9 269.56 171.22 269.56C225.54 269.56 269.57 225.52 269.57 171.2H342.43H342.41Z" fill="#222222"/>
<path d="M361.84 269.55H171.21V342.39H361.84V269.55Z" fill="#222222"/>
<path d="M171.21 72.8501V171.2H269.56L171.21 72.8501Z" fill="#222222"/>
</svg>
