<svg width="630" height="272" viewBox="0 0 630 272" fill="none" xmlns="http://www.w3.org/2000/svg">
<path d="M47.8201 107.75H4.84009C6.05009 89.39 13.62 76.0698 27.54 67.7998C41.46 59.5298 58.41 55.3896 78.39 55.3896C124.19 55.3896 147.09 70.2199 147.09 99.8799V181.3C147.09 198.66 148.91 210.26 152.54 216.11H108.96C107.14 210.46 106.13 205.42 105.93 200.98C93.6201 213.9 76.07 220.35 53.27 220.35C37.53 220.35 24.7201 216.36 14.8301 208.39C4.94008 200.42 0 188.77 0 173.43C0 165.76 1.36009 159.05 4.09009 153.3C6.81009 147.55 10.04 143.06 13.78 139.83C17.51 136.6 22.6001 133.83 29.0601 131.51C35.5201 129.19 41.1101 127.63 45.8601 126.82C50.6001 126.02 56.7 125.21 64.17 124.4C79.5 122.79 90 120.82 95.65 118.5C101.3 116.18 104.12 111.79 104.12 105.33C104.12 97.0601 101.7 91.4598 96.8601 88.5298C92.0201 85.6098 85.16 84.1396 76.28 84.1396C58.73 84.1396 49.2401 92.01 47.8301 107.75H47.8201ZM104.11 155.57V139.53C100.68 142.76 92.0001 145.28 78.0801 147.1C72.4301 147.91 67.99 148.67 64.76 149.37C61.53 150.08 58 151.29 54.17 153C50.34 154.72 47.5101 157.09 45.7001 160.11C43.8801 163.14 42.9801 166.97 42.9801 171.61C42.9801 184.93 51.7601 191.59 69.3101 191.59C92.5101 191.59 104.12 179.59 104.12 155.57H104.11Z" fill="#CCCCCC"/>
<path d="M169.49 216.1V0H212.47V216.1H169.49Z" fill="#CCCCCC"/>
<path d="M234.26 216.1V0H277.24V78.6899H277.85C288.14 63.1499 304.58 55.3896 327.18 55.3896C344.53 55.3896 359.66 62.4601 372.58 76.5801C385.49 90.7001 391.95 111.08 391.95 137.72C391.95 164.36 385.49 184.78 372.58 199.01C359.66 213.24 344.53 220.35 327.18 220.35C301.76 220.35 284.6 212.28 275.73 196.14H275.12V216.12H234.26V216.1ZM348.97 138.01C348.97 123.69 345.89 111.73 339.74 102.14C333.58 92.5596 324.46 87.7598 312.35 87.7598C300.24 87.7598 291.11 92.5496 284.96 102.14C278.8 111.73 275.73 123.68 275.73 138.01C275.73 152.34 278.86 163.99 285.11 173.57C291.36 183.15 300.44 187.95 312.35 187.95C324.26 187.95 333.33 183.16 339.59 173.57C345.84 163.99 348.97 152.13 348.97 138.01Z" fill="#CCCCCC"/>
<path d="M559.62 59.6299V271.19H516.64V196.43H516.03C511.39 204.5 504.58 210.5 495.6 214.44C486.62 218.37 476.99 220.34 466.7 220.34C459.03 220.34 451.51 218.87 444.15 215.95C436.78 213.03 429.72 208.53 422.96 202.48C416.2 196.43 410.75 187.91 406.62 176.91C402.48 165.91 400.42 153.25 400.42 138.93C400.42 115.73 406.52 95.9998 418.73 79.7598C430.94 63.5198 448.24 55.3999 470.64 55.3999C493.04 55.3999 509.08 63.4699 518.16 79.6099H518.76V59.6299H559.62ZM452.63 102.15C446.47 111.74 443.4 123.69 443.4 138.02C443.4 152.35 446.32 164.25 452.18 173.73C458.03 183.22 467.51 187.95 480.63 187.95C493.75 187.95 503.03 183.31 509.08 174.03C515.13 164.75 518.16 152.95 518.16 138.62C518.16 124.29 515.18 112.74 509.23 102.75C503.28 92.76 494.04 87.77 481.54 87.77C469.04 87.77 458.79 92.5599 452.64 102.15H452.63Z" fill="#CCCCCC"/>
<path d="M581.71 216.1V169.49H629.23V216.1H581.71Z" fill="#CCCCCC"/>
</svg>
