<svg width="163" height="23" viewBox="0 0 163 23" fill="none" xmlns="http://www.w3.org/2000/svg">
<path d="M36.7983 10.196H33.4628C33.5575 8.77118 34.1443 7.73759 35.2253 7.0952C36.3062 6.4528 37.6219 6.13159 39.1703 6.13159C42.724 6.13159 44.5009 7.28255 44.5009 9.58447V15.9014C44.5009 17.2479 44.6409 18.1477 44.923 18.6027H41.5401C41.4001 18.1642 41.3198 17.773 41.3054 17.4291C40.35 18.4318 38.987 18.9322 37.2184 18.9322C35.9974 18.9322 35.0029 18.6233 34.2349 18.0036C33.4669 17.3859 33.084 16.482 33.084 15.2919C33.084 14.6969 33.189 14.176 33.401 13.7312C33.6131 13.2844 33.8623 12.9365 34.1526 12.6853C34.4429 12.4341 34.8382 12.22 35.3385 12.0388C35.8389 11.8596 36.2733 11.7381 36.6418 11.6743C37.0104 11.6126 37.484 11.5487 38.0625 11.4869C39.2526 11.3614 40.0659 11.209 40.5045 11.0299C40.943 10.8507 41.1613 10.509 41.1613 10.0086C41.1613 9.36623 40.9739 8.93178 40.5971 8.70529C40.2224 8.47881 39.6891 8.36556 38.9994 8.36556C37.6363 8.36556 36.9013 8.97707 36.7921 10.198L36.7983 10.196ZM41.1674 13.9062V12.6606C40.9018 12.9118 40.2286 13.1074 39.1476 13.2474C38.7091 13.3091 38.3652 13.3688 38.114 13.4244C37.8628 13.48 37.589 13.5727 37.2925 13.7065C36.9939 13.8403 36.7757 14.0236 36.6357 14.2583C36.4957 14.493 36.4236 14.7916 36.4236 15.1498C36.4236 16.1834 37.1051 16.7003 38.4661 16.7003C40.2656 16.7003 41.1674 15.7696 41.1674 13.9062Z" fill="white"/>
<path d="M46.2383 18.6048V1.83455H49.5738V18.6048H46.2383Z" fill="white"/>
<path d="M51.2656 18.6048V1.83455H54.6012V7.94143H54.6485C55.4474 6.73488 56.7239 6.13366 58.4761 6.13366C59.8227 6.13366 60.9963 6.68134 61.999 7.77877C63.0017 8.87413 63.502 10.4554 63.502 12.5226C63.502 14.5898 63.0017 16.1752 61.999 17.2788C60.9963 18.3824 59.8227 18.9342 58.4761 18.9342C56.5036 18.9342 55.1715 18.3083 54.4838 17.0565H54.4364V18.6069H51.2656V18.6048ZM60.1665 12.5453C60.1665 11.4334 59.9277 10.5069 59.45 9.76155C58.9723 9.01826 58.264 8.64561 57.3252 8.64561C56.3863 8.64561 55.678 9.01826 55.2003 9.76155C54.7226 10.5048 54.4838 11.4334 54.4838 12.5453C54.4838 13.6571 54.7267 14.561 55.2127 15.3043C55.6986 16.0476 56.4027 16.4202 57.3272 16.4202C58.2517 16.4202 58.9558 16.0476 59.4417 15.3043C59.9277 14.561 60.1706 13.6406 60.1706 12.5453H60.1665Z" fill="white"/>
<path d="M76.0679 6.46101V18.6027H72.8971V16.9123H72.8271C72.4194 17.5691 71.8841 18.0715 71.2191 18.4153C70.554 18.7592 69.8519 18.9321 69.1169 18.9321C67.4409 18.9321 66.2817 18.5101 65.6413 17.6638C64.9989 16.8176 64.6777 15.574 64.6777 13.9289V6.46101H68.0132V13.3194C68.0132 14.3365 68.178 15.0881 68.5074 15.574C68.8368 16.0599 69.3845 16.3029 70.1504 16.3029C71.0584 16.3029 71.7153 16.029 72.1229 15.4813C72.5306 14.9336 72.7344 14.0483 72.7344 12.8273V6.46307H76.07L76.0679 6.46101Z" fill="white"/>
<path d="M89.5023 6.46102V22.8771H86.1668V17.077H86.1194C85.7591 17.703 85.23 18.1683 84.5341 18.4751C83.8381 18.7798 83.0886 18.9322 82.2918 18.9322C81.6968 18.9322 81.1141 18.8189 80.5417 18.5924C79.9693 18.3659 79.4216 18.018 78.8966 17.5465C78.3716 17.077 77.9495 16.4161 77.6283 15.5616C77.3071 14.7092 77.1465 13.725 77.1465 12.6132C77.1465 10.8137 77.6201 9.28181 78.5672 8.02173C79.5143 6.76164 80.8567 6.13159 82.5945 6.13159C84.3322 6.13159 85.578 6.75752 86.2821 8.01142H86.3295V6.46102H89.5002H89.5023ZM81.2006 9.76154C80.7229 10.5048 80.4841 11.4334 80.4841 12.5453C80.4841 13.6571 80.7105 14.5816 81.1656 15.3166C81.6206 16.0537 82.3557 16.4202 83.3728 16.4202C84.3899 16.4202 85.1105 16.0599 85.58 15.3393C86.0494 14.6186 86.2842 13.7024 86.2842 12.5905C86.2842 11.4787 86.0535 10.5831 85.5903 9.80683C85.1291 9.03266 84.4126 8.64354 83.4407 8.64354C82.4689 8.64354 81.6762 9.01619 81.1986 9.75948L81.2006 9.76154Z" fill="white"/>
<path d="M102.464 6.46101V18.6027H99.2936V16.9123H99.2235C98.8159 17.5691 98.2806 18.0715 97.6155 18.4153C96.9505 18.7592 96.2483 18.9321 95.5133 18.9321C93.8373 18.9321 92.6781 18.5101 92.0378 17.6638C91.3954 16.8176 91.0742 15.574 91.0742 13.9289V6.46101H94.4097V13.3194C94.4097 14.3365 94.5744 15.0881 94.9039 15.574C95.2333 16.0599 95.781 16.3029 96.5469 16.3029C97.4549 16.3029 98.1117 16.029 98.5194 15.4813C98.9271 14.9336 99.1309 14.0483 99.1309 12.8273V6.46307H102.466L102.464 6.46101Z" fill="white"/>
<path d="M115.571 13.3441H106.81C106.905 15.3949 107.899 16.4202 109.793 16.4202C110.436 16.4202 111.006 16.2596 111.509 15.9384C112.009 15.6172 112.316 15.2528 112.425 14.8472H115.361C114.469 17.5712 112.573 18.9342 109.678 18.9342C107.784 18.9342 106.277 18.3433 105.157 17.1615C104.037 15.9796 103.477 14.4416 103.477 12.5473C103.477 10.6531 104.051 9.16855 105.202 7.95583C106.353 6.7431 107.844 6.13571 109.676 6.13571C111.649 6.13571 113.16 6.83988 114.21 8.25027C115.258 9.6586 115.713 11.3593 115.573 13.3462L115.571 13.3441ZM106.81 11.2296H112.235C112.079 10.3525 111.793 9.70183 111.379 9.27975C110.963 8.85766 110.366 8.6456 109.581 8.6456C108.626 8.6456 107.938 8.91531 107.514 9.45682C107.092 9.99626 106.857 10.5872 106.81 11.2296Z" fill="white"/>
<path d="M116.604 18.6048V6.46308H119.774V8.71766H119.822C120.135 7.95172 120.651 7.32784 121.372 6.85017C122.093 6.37249 122.867 6.13365 123.697 6.13365C123.915 6.13365 124.158 6.17279 124.426 6.25103V9.35181C124.082 9.27357 123.682 9.23446 123.227 9.23446C121.034 9.23446 119.939 10.5336 119.939 13.1341V18.6068H116.604V18.6048Z" fill="white"/>
<path d="M136.215 6.46102V22.8771H132.88V17.077H132.832C132.472 17.703 131.943 18.1683 131.247 18.4751C130.551 18.7798 129.801 18.9322 129.005 18.9322C128.41 18.9322 127.827 18.8189 127.254 18.5924C126.682 18.3659 126.134 18.018 125.611 17.5465C125.086 17.077 124.664 16.4161 124.343 15.5616C124.022 14.7092 123.861 13.725 123.861 12.6132C123.861 10.8137 124.335 9.28181 125.282 8.02173C126.229 6.76164 127.572 6.13159 129.309 6.13159C131.047 6.13159 132.293 6.75752 132.997 8.01142H133.044V6.46102H136.215ZM127.913 9.76154C127.436 10.5048 127.197 11.4334 127.197 12.5453C127.197 13.6571 127.423 14.5816 127.878 15.3166C128.331 16.0537 129.068 16.4202 130.086 16.4202C131.103 16.4202 131.823 16.0599 132.293 15.3393C132.762 14.6186 132.997 13.7024 132.997 12.5905C132.997 11.4787 132.766 10.5831 132.303 9.80683C131.842 9.03266 131.125 8.64354 130.153 8.64354C129.182 8.64354 128.389 9.01619 127.911 9.75948L127.913 9.76154Z" fill="white"/>
<path d="M149.179 6.46101V18.6027H146.008V16.9123H145.938C145.531 17.5691 144.995 18.0715 144.33 18.4153C143.665 18.7592 142.963 18.9321 142.228 18.9321C140.552 18.9321 139.395 18.5101 138.753 17.6638C138.11 16.8176 137.789 15.574 137.789 13.9289V6.46101H141.125V13.3194C141.125 14.3365 141.289 15.0881 141.619 15.574C141.948 16.0599 142.496 16.3029 143.262 16.3029C144.17 16.3029 144.827 16.029 145.234 15.4813C145.642 14.9336 145.846 14.0483 145.846 12.8273V6.46307H149.181L149.179 6.46101Z" fill="white"/>
<path d="M162.284 13.3441H153.523C153.618 15.3949 154.61 16.4202 156.506 16.4202C157.149 16.4202 157.719 16.2596 158.221 15.9384C158.722 15.6172 159.029 15.2528 159.138 14.8472H162.074C161.182 17.5712 159.286 18.9342 156.391 18.9342C154.497 18.9342 152.99 18.3433 151.87 17.1615C150.75 15.9796 150.189 14.4416 150.189 12.5473C150.189 10.6531 150.764 9.16855 151.915 7.95583C153.066 6.7431 154.557 6.13571 156.389 6.13571C158.361 6.13571 159.873 6.83988 160.923 8.25027C161.971 9.6586 162.426 11.3593 162.286 13.3462L162.284 13.3441ZM153.523 11.2296H158.948C158.792 10.3525 158.506 9.70183 158.092 9.27975C157.676 8.85766 157.079 8.6456 156.294 8.6456C155.339 8.6456 154.651 8.91531 154.227 9.45682C153.805 9.99626 153.57 10.5872 153.523 11.2296Z" fill="white"/>
<path d="M11.2399 4.78299C7.67374 4.78299 4.78296 7.67376 4.78296 11.2399H0C0 5.03212 5.03209 0 11.2399 0V4.78299Z" fill="#CCCCCC"/>
<path d="M22.4797 11.2399C22.4797 17.4476 17.4476 22.4797 11.2399 22.4797C5.03209 22.4797 0 17.4476 0 11.2399H4.78296C4.78296 14.806 7.67374 17.6968 11.2399 17.6968C14.806 17.6968 17.6968 14.806 17.6968 11.2399H22.4797Z" fill="#CCCCCC"/>
<path d="M23.7546 17.6968H11.2402V22.4797H23.7546V17.6968Z" fill="#CCCCCC"/>
<path d="M11.2402 4.78299V11.2399H17.6971L11.2402 4.78299Z" fill="#CCCCCC"/>
</svg>
