<svg width="702" height="364" viewBox="0 0 702 364" fill="none" xmlns="http://www.w3.org/2000/svg">
<path d="M20.16 197.88H2.05C2.56 190.14 5.75 184.53 11.61 181.05C17.48 177.57 24.62 175.82 33.03 175.82C52.33 175.82 61.98 182.07 61.98 194.57V228.87C61.98 236.18 62.75 241.07 64.28 243.54H45.92C45.15 241.16 44.73 239.04 44.64 237.16C39.45 242.6 32.06 245.32 22.45 245.32C15.82 245.32 10.42 243.64 6.25 240.28C2.08 236.92 0 232.01 0 225.55C0 222.32 0.570001 219.49 1.72 217.07C2.87 214.65 4.23 212.76 5.8 211.4C7.37 210.04 9.52 208.87 12.24 207.89C14.96 206.91 17.32 206.25 19.32 205.91C21.32 205.57 23.89 205.23 27.04 204.89C33.5 204.21 37.92 203.38 40.3 202.4C42.68 201.42 43.87 199.57 43.87 196.85C43.87 193.36 42.85 191.01 40.81 189.77C38.77 188.54 35.88 187.92 32.14 187.92C24.74 187.92 20.75 191.24 20.15 197.87L20.16 197.88ZM43.88 218.03V211.27C42.43 212.63 38.78 213.69 32.91 214.46C30.53 214.8 28.66 215.12 27.3 215.42C25.94 215.72 24.45 216.23 22.84 216.95C21.22 217.67 20.03 218.67 19.27 219.95C18.51 221.23 18.12 222.84 18.12 224.8C18.12 230.41 21.82 233.22 29.21 233.22C38.99 233.22 43.88 228.16 43.88 218.04V218.03Z" fill="#222222"/>
<path d="M71.4199 243.53V152.48H89.5299V243.53H71.4199Z" fill="#222222"/>
<path d="M98.7102 243.53V152.48H116.82V185.64H117.07C121.41 179.09 128.33 175.82 137.86 175.82C145.17 175.82 151.55 178.8 156.99 184.75C162.43 190.7 165.15 199.29 165.15 210.51C165.15 221.73 162.43 230.34 156.99 236.33C151.55 242.32 145.17 245.32 137.86 245.32C127.15 245.32 119.92 241.92 116.18 235.12H115.92V243.54H98.7002L98.7102 243.53ZM147.04 210.63C147.04 204.59 145.74 199.56 143.15 195.52C140.56 191.48 136.71 189.46 131.61 189.46C126.51 189.46 122.66 191.48 120.07 195.52C117.48 199.56 116.18 204.6 116.18 210.63C116.18 216.66 117.5 221.58 120.13 225.61C122.76 229.65 126.59 231.67 131.61 231.67C136.63 231.67 140.45 229.65 143.09 225.61C145.72 221.57 147.04 216.58 147.04 210.63Z" fill="#222222"/>
<path d="M233.38 177.6V243.53H216.16V234.35H215.78C213.57 237.92 210.66 240.64 207.04 242.51C203.43 244.38 199.62 245.32 195.63 245.32C186.53 245.32 180.24 243.03 176.76 238.43C173.27 233.84 171.53 227.08 171.53 218.15V177.6H189.64V214.84C189.64 220.37 190.53 224.45 192.32 227.08C194.11 229.72 197.08 231.03 201.25 231.03C206.18 231.03 209.75 229.54 211.96 226.57C214.17 223.59 215.28 218.79 215.28 212.16V177.6H233.39H233.38Z" fill="#222222"/>
<path d="M306.33 177.6V266.74H288.22V235.24H287.96C286 238.64 283.13 241.17 279.35 242.83C275.57 244.49 271.51 245.32 267.17 245.32C263.94 245.32 260.77 244.7 257.67 243.47C254.57 242.24 251.59 240.35 248.74 237.8C245.89 235.25 243.6 231.66 241.85 227.02C240.11 222.39 239.24 217.05 239.24 211.02C239.24 201.24 241.81 192.93 246.96 186.09C252.1 179.25 259.39 175.82 268.83 175.82C278.27 175.82 285.03 179.22 288.85 186.02H289.1V177.6H306.32H306.33ZM261.25 195.52C258.66 199.56 257.36 204.6 257.36 210.63C257.36 216.66 258.59 221.68 261.06 225.68C263.52 229.68 267.52 231.67 273.05 231.67C278.58 231.67 282.49 229.72 285.04 225.8C287.59 221.89 288.87 216.92 288.87 210.88C288.87 204.84 287.61 199.98 285.11 195.77C282.6 191.56 278.71 189.46 273.44 189.46C268.17 189.46 263.85 191.48 261.26 195.52H261.25Z" fill="#222222"/>
<path d="M376.72 177.6V243.53H359.5V234.35H359.12C356.91 237.92 354 240.64 350.38 242.51C346.77 244.38 342.96 245.32 338.97 245.32C329.87 245.32 323.58 243.03 320.1 238.43C316.61 233.84 314.87 227.08 314.87 218.15V177.6H332.98V214.84C332.98 220.37 333.87 224.45 335.66 227.08C337.45 229.72 340.42 231.03 344.59 231.03C349.52 231.03 353.09 229.54 355.3 226.57C357.51 223.59 358.62 218.79 358.62 212.16V177.6H376.73H376.72Z" fill="#222222"/>
<path d="M447.88 214.96H400.31C400.82 226.1 406.22 231.67 416.51 231.67C420 231.67 423.1 230.8 425.82 229.06C428.54 227.32 430.2 225.34 430.79 223.13H446.73C441.88 237.92 431.6 245.32 415.87 245.32C405.58 245.32 397.4 242.11 391.32 235.69C385.24 229.27 382.2 220.92 382.2 210.63C382.2 200.34 385.32 192.29 391.57 185.7C397.82 179.11 405.92 175.82 415.86 175.82C426.57 175.82 434.78 179.65 440.47 187.3C446.17 194.95 448.63 204.18 447.87 214.97L447.88 214.96ZM400.31 203.48H429.77C428.92 198.72 427.37 195.19 425.12 192.9C422.87 190.6 419.61 189.46 415.36 189.46C410.17 189.46 406.43 190.93 404.14 193.86C401.84 196.79 400.57 200 400.31 203.49V203.48Z" fill="#222222"/>
<path d="M453.49 243.53V177.6H470.71V189.84H470.96C472.66 185.67 475.47 182.3 479.38 179.7C483.29 177.11 487.5 175.81 492 175.81C493.19 175.81 494.51 176.02 495.95 176.45V193.28C494.08 192.86 491.91 192.64 489.45 192.64C477.55 192.64 471.6 199.7 471.6 213.81V243.52H453.49V243.53Z" fill="#222222"/>
<path d="M559.97 177.6V266.74H541.86V235.24H541.61C539.65 238.64 536.78 241.17 533 242.83C529.22 244.49 525.16 245.32 520.82 245.32C517.59 245.32 514.42 244.7 511.32 243.47C508.22 242.24 505.24 240.35 502.39 237.8C499.54 235.25 497.24 231.66 495.5 227.02C493.76 222.39 492.89 217.05 492.89 211.02C492.89 201.24 495.46 192.93 500.61 186.09C505.75 179.25 513.04 175.82 522.48 175.82C531.92 175.82 538.68 179.22 542.5 186.02H542.75V177.6H559.97ZM514.89 195.52C512.3 199.56 511 204.6 511 210.63C511 216.66 512.23 221.68 514.7 225.68C517.16 229.68 521.16 231.67 526.69 231.67C532.22 231.67 536.13 229.72 538.68 225.8C541.23 221.89 542.51 216.92 542.51 210.88C542.51 204.84 541.25 199.98 538.75 195.77C536.24 191.56 532.35 189.46 527.08 189.46C521.55 189.46 517.49 191.48 514.9 195.52H514.89Z" fill="#222222"/>
<path d="M630.37 177.6V243.53H613.15V234.35H612.77C610.56 237.92 607.65 240.64 604.03 242.51C600.42 244.38 596.61 245.32 592.62 245.32C583.52 245.32 577.23 243.03 573.75 238.43C570.26 233.84 568.52 227.08 568.52 218.15V177.6H586.63V214.84C586.63 220.37 587.52 224.45 589.31 227.08C591.1 229.72 594.07 231.03 598.24 231.03C603.17 231.03 606.74 229.54 608.95 226.57C611.16 223.59 612.27 218.79 612.27 212.16V177.6H630.38H630.37Z" fill="#222222"/>
<path d="M701.52 214.96H653.95C654.46 226.1 659.86 231.67 670.15 231.67C673.64 231.67 676.74 230.8 679.46 229.06C682.18 227.32 683.84 225.34 684.43 223.13H700.37C695.52 237.92 685.24 245.32 669.51 245.32C659.22 245.32 651.04 242.11 644.96 235.69C638.88 229.27 635.84 220.92 635.84 210.63C635.84 200.34 638.96 192.29 645.21 185.7C651.46 179.11 659.56 175.82 669.5 175.82C680.21 175.82 688.42 179.65 694.11 187.3C699.8 194.95 702.27 204.18 701.51 214.97L701.52 214.96ZM653.95 203.48H683.41C682.56 198.72 681.01 195.19 678.76 192.9C676.51 190.6 673.25 189.46 669 189.46C663.81 189.46 660.07 190.93 657.78 193.86C655.48 196.79 654.21 200 653.95 203.49V203.48Z" fill="#222222"/>
<path d="M187.64 334.86H161.99C161.99 338.26 162.93 341.3 164.8 343.97C166.67 346.64 169.4 347.97 172.97 347.97C178.53 347.97 182.01 345.13 183.44 339.44H187.51C185.66 347.41 180.81 351.39 172.97 351.39C167.97 351.39 164.22 349.73 161.7 346.42C159.18 343.1 157.92 338.88 157.92 333.76C157.92 330.66 158.41 327.83 159.41 325.26C160.4 322.7 162.07 320.53 164.42 318.77C166.77 317 169.62 316.12 172.98 316.12C176.34 316.12 179.24 317.05 181.54 318.9C183.84 320.75 185.47 323.06 186.42 325.81C187.37 328.57 187.78 331.58 187.65 334.85L187.64 334.86ZM161.99 331.44H183.57C183.48 328.21 182.47 325.42 180.53 323.07C178.59 320.72 176.07 319.55 172.97 319.55C169.87 319.55 167.31 320.7 165.41 323.01C163.51 325.31 162.37 328.12 161.99 331.44Z" fill="#212322"/>
<path d="M199.53 350.43V317.1H203.6V322.85H203.73C204.51 320.87 205.88 319.25 207.86 318C209.84 316.75 212.02 316.13 214.38 316.13C218.86 316.13 222.01 317.22 223.84 319.39C225.67 321.57 226.59 324.76 226.59 328.98V350.43H222.52V329.63C222.52 322.91 219.7 319.55 214.06 319.55C210.87 319.55 208.35 320.62 206.5 322.75C204.65 324.88 203.68 327.63 203.59 330.99V350.43H199.52H199.53Z" fill="#212322"/>
<path d="M268.91 317.1V347.72C268.91 352.93 267.75 356.9 265.42 359.64C263.09 362.37 259.33 363.74 254.11 363.74C250.45 363.74 247.29 362.89 244.65 361.19C242 359.49 240.55 356.98 240.29 353.66H244.36C244.75 355.94 245.85 357.62 247.65 358.7C249.46 359.78 251.61 360.32 254.11 360.32C257.81 360.32 260.53 359.26 262.25 357.15C263.97 355.04 264.83 351.9 264.83 347.72V343.2H264.7C263.75 345.31 262.34 346.98 260.47 348.21C258.6 349.44 256.47 350.05 254.11 350.05C249.03 350.05 245.25 348.48 242.77 345.33C240.29 342.19 239.06 338.05 239.06 332.93C239.06 328.15 240.41 324.16 243.1 320.95C245.79 317.74 249.46 316.14 254.11 316.14C256.48 316.14 258.62 316.78 260.54 318.05C262.46 319.32 263.84 320.93 264.71 322.86H264.84V317.11H268.91V317.1ZM254.12 346.62C257.48 346.62 260.11 345.32 262 342.71C263.89 340.1 264.84 336.99 264.84 333.38C264.84 329.77 263.95 326.45 262.16 323.69C260.37 320.93 257.69 319.56 254.12 319.56C250.55 319.56 247.77 320.91 245.92 323.6C244.07 326.29 243.14 329.56 243.14 333.39C243.14 337.22 244.08 340.17 245.95 342.76C247.82 345.34 250.55 346.64 254.12 346.64V346.62Z" fill="#212322"/>
<path d="M311.15 334.86H285.5C285.5 338.26 286.44 341.3 288.31 343.97C290.18 346.64 292.91 347.97 296.48 347.97C302.04 347.97 305.52 345.13 306.95 339.44H311.02C309.17 347.41 304.32 351.39 296.48 351.39C291.48 351.39 287.73 349.73 285.21 346.42C282.69 343.1 281.43 338.88 281.43 333.76C281.43 330.66 281.92 327.83 282.92 325.26C283.91 322.7 285.58 320.53 287.93 318.77C290.28 317 293.13 316.12 296.49 316.12C299.85 316.12 302.75 317.05 305.05 318.9C307.35 320.75 308.98 323.06 309.93 325.81C310.88 328.57 311.29 331.58 311.16 334.85L311.15 334.86ZM285.5 331.44H307.08C306.99 328.21 305.98 325.42 304.04 323.07C302.1 320.72 299.58 319.55 296.48 319.55C293.38 319.55 290.82 320.7 288.92 323.01C287.02 325.31 285.88 328.12 285.5 331.44Z" fill="#212322"/>
<path d="M323.04 350.43V317.1H327.11V322.85H327.24C328.02 320.87 329.39 319.25 331.37 318C333.35 316.75 335.53 316.13 337.89 316.13C342.37 316.13 345.52 317.22 347.35 319.39C349.18 321.57 350.1 324.76 350.1 328.98V350.43H346.03V329.63C346.03 322.91 343.21 319.55 337.57 319.55C334.38 319.55 331.86 320.62 330.01 322.75C328.16 324.88 327.19 327.63 327.1 330.99V350.43H323.03H323.04Z" fill="#212322"/>
<path d="M364.19 350.43V304.31H368.26V322.85H368.39C369.17 320.87 370.54 319.25 372.52 318C374.5 316.75 376.68 316.13 379.04 316.13C383.52 316.13 386.67 317.22 388.5 319.39C390.33 321.57 391.25 324.76 391.25 328.98V350.43H387.18V329.63C387.18 322.91 384.36 319.55 378.72 319.55C375.53 319.55 373.01 320.62 371.16 322.75C369.31 324.88 368.34 327.63 368.25 330.99V350.43H364.18H364.19Z" fill="#212322"/>
<path d="M409.09 327.31H405.02C405.23 323.52 406.54 320.71 408.93 318.88C411.32 317.05 414.52 316.13 418.52 316.13C426.7 316.13 430.79 319.71 430.79 326.85V344.55C430.79 346.19 431.59 347.01 433.18 347.01C433.65 347.01 434.08 346.92 434.47 346.75V350.17C433.61 350.34 432.73 350.43 431.82 350.43C429.92 350.43 428.65 349.95 428.01 348.98C427.36 348.01 427.04 346.56 427.04 344.62H426.91C425.32 346.99 423.65 348.71 421.9 349.79C420.16 350.87 417.78 351.41 414.76 351.41C411.49 351.41 408.81 350.59 406.72 348.96C404.63 347.32 403.59 344.89 403.59 341.66C403.59 340.45 403.76 339.37 404.11 338.4C404.45 337.43 404.85 336.61 405.31 335.94C405.76 335.27 406.47 334.67 407.44 334.13C408.41 333.59 409.24 333.18 409.93 332.9C410.62 332.62 411.66 332.35 413.06 332.09C414.46 331.83 415.52 331.65 416.26 331.54C416.99 331.43 418.18 331.29 419.81 331.12C420.54 331.03 421.1 330.97 421.49 330.93C423.38 330.76 424.73 330.38 425.53 329.8C426.33 329.22 426.73 328.09 426.73 326.41C426.73 323.87 425.95 322.09 424.4 321.08C422.85 320.07 420.72 319.56 418 319.56C415.28 319.56 413.2 320.2 411.6 321.47C410.01 322.74 409.17 324.69 409.08 327.32L409.09 327.31ZM426.73 337.52V332.22H426.6C426.25 332.87 425.11 333.36 423.18 333.71C422.45 333.84 421.28 334.02 419.69 334.26C418.1 334.5 416.87 334.69 416.01 334.84C415.15 334.99 414.1 335.25 412.88 335.61C411.65 335.98 410.73 336.38 410.1 336.81C409.48 337.24 408.91 337.85 408.42 338.65C407.92 339.45 407.68 340.36 407.68 341.4C407.68 343.38 408.41 344.98 409.88 346.18C411.34 347.39 413.09 347.99 415.11 347.99C418.38 347.99 421.14 347.03 423.38 345.12C425.62 343.2 426.74 340.67 426.74 337.53L426.73 337.52Z" fill="#212322"/>
<path d="M445.39 350.43V317.1H449.14V324.92H449.27C450.3 322.17 451.92 320.07 454.12 318.62C456.32 317.18 458.9 316.52 461.87 316.65V320.72C458.25 320.55 455.28 321.61 452.96 323.92C450.63 326.22 449.47 329.14 449.47 332.67V350.44H445.4L445.39 350.43Z" fill="#212322"/>
<path d="M472.27 310.83V304.31H476.34V310.83H472.27ZM472.27 350.43V317.1H476.34V350.43H472.27Z" fill="#212322"/>
<path d="M494.29 327.31H490.22C490.44 323.52 491.74 320.71 494.13 318.88C496.52 317.05 499.72 316.13 503.72 316.13C511.9 316.13 515.99 319.71 515.99 326.85V344.55C515.99 346.19 516.79 347.01 518.38 347.01C518.85 347.01 519.28 346.92 519.67 346.75V350.17C518.81 350.34 517.93 350.43 517.02 350.43C515.12 350.43 513.85 349.95 513.21 348.98C512.56 348.01 512.24 346.56 512.24 344.62H512.11C510.52 346.99 508.85 348.71 507.1 349.79C505.36 350.87 502.98 351.41 499.96 351.41C496.69 351.41 494.01 350.59 491.92 348.96C489.83 347.32 488.79 344.89 488.79 341.66C488.79 340.45 488.96 339.37 489.31 338.4C489.65 337.43 490.05 336.61 490.51 335.94C490.96 335.27 491.67 334.67 492.64 334.13C493.61 333.59 494.44 333.18 495.13 332.9C495.82 332.62 496.86 332.35 498.26 332.09C499.66 331.83 500.72 331.65 501.46 331.54C502.19 331.43 503.38 331.29 505.01 331.12C505.74 331.03 506.3 330.97 506.69 330.93C508.58 330.76 509.93 330.38 510.73 329.8C511.53 329.22 511.93 328.09 511.93 326.41C511.93 323.87 511.15 322.09 509.6 321.08C508.05 320.07 505.92 319.56 503.2 319.56C500.48 319.56 498.4 320.2 496.8 321.47C495.21 322.74 494.37 324.69 494.28 327.32L494.29 327.31ZM511.93 337.52V332.22H511.8C511.45 332.87 510.31 333.36 508.38 333.71C507.65 333.84 506.48 334.02 504.89 334.26C503.3 334.5 502.07 334.69 501.21 334.84C500.35 334.99 499.3 335.25 498.08 335.61C496.85 335.98 495.93 336.38 495.3 336.81C494.68 337.24 494.11 337.85 493.62 338.65C493.12 339.45 492.88 340.36 492.88 341.4C492.88 343.38 493.61 344.98 495.08 346.18C496.54 347.39 498.29 347.99 500.31 347.99C503.58 347.99 506.34 347.03 508.58 345.12C510.82 343.2 511.94 340.67 511.94 337.53L511.93 337.52Z" fill="#212322"/>
<path d="M341.13 25.97C321.77 25.97 306.07 41.67 306.07 61.03H280.1C280.1 27.33 307.42 0 341.13 0V25.97Z" fill="#D0CFCD"/>
<path d="M402.16 61.03C402.16 94.74 374.84 122.06 341.13 122.06C307.42 122.06 280.1 94.74 280.1 61.03H306.07C306.07 80.39 321.76 96.09 341.13 96.09C360.5 96.09 376.19 80.39 376.19 61.03H402.16Z" fill="#D0CFCD"/>
<path d="M409.08 96.1H341.13V122.07H409.08V96.1Z" fill="#D0CFCD"/>
<path d="M341.13 25.97V61.03H376.18L341.13 25.97Z" fill="#D0CFCD"/>
</svg>
