<svg width="1673" height="1081" viewBox="0 0 1673 1081" fill="none" xmlns="http://www.w3.org/2000/svg">
<path d="M1672.33 0H0V1080.11H1672.33V0Z" fill="#222222"/>
<path d="M542.21 500.15H526.01C526.47 493.23 529.32 488.21 534.57 485.09C539.82 481.97 546.2 480.41 553.73 480.41C570.99 480.41 579.62 486 579.62 497.18V527.87C579.62 534.41 580.3 538.78 581.67 540.99H565.24C564.56 538.86 564.17 536.96 564.1 535.29C559.46 540.16 552.84 542.59 544.25 542.59C538.32 542.59 533.49 541.09 529.76 538.08C526.03 535.08 524.17 530.69 524.17 524.9C524.17 522.01 524.68 519.48 525.71 517.32C526.74 515.15 527.95 513.46 529.36 512.24C530.77 511.02 532.69 509.98 535.12 509.1C537.55 508.23 539.66 507.64 541.45 507.33C543.24 507.03 545.54 506.72 548.35 506.42C554.13 505.81 558.08 505.07 560.21 504.2C562.34 503.33 563.4 501.67 563.4 499.24C563.4 496.12 562.49 494.01 560.66 492.91C558.84 491.81 556.25 491.26 552.9 491.26C546.28 491.26 542.71 494.23 542.18 500.16L542.21 500.15ZM563.43 518.17V512.12C562.14 513.34 558.87 514.29 553.62 514.97C551.49 515.27 549.82 515.56 548.6 515.83C547.38 516.1 546.05 516.55 544.61 517.2C543.16 517.85 542.1 518.74 541.42 519.88C540.74 521.02 540.39 522.47 540.39 524.21C540.39 529.23 543.7 531.74 550.31 531.74C559.05 531.74 563.43 527.21 563.43 518.17Z" fill="white"/>
<path d="M588.061 540.98V459.53H604.26V540.98H588.061Z" fill="white"/>
<path d="M612.47 540.98V459.53H628.67V489.19H628.9C632.78 483.33 638.98 480.41 647.49 480.41C654.03 480.41 659.73 483.07 664.6 488.39C669.47 493.71 671.9 501.39 671.9 511.43C671.9 521.47 669.47 529.17 664.6 534.53C659.73 539.89 654.03 542.57 647.49 542.57C637.91 542.57 631.44 539.53 628.1 533.45H627.87V540.98H612.47ZM655.7 511.55C655.7 506.15 654.54 501.65 652.22 498.03C649.9 494.42 646.46 492.61 641.9 492.61C637.34 492.61 633.9 494.42 631.58 498.03C629.26 501.64 628.1 506.15 628.1 511.55C628.1 516.95 629.28 521.34 631.64 524.95C634 528.56 637.42 530.37 641.91 530.37C646.4 530.37 649.82 528.56 652.18 524.95C654.54 521.34 655.72 516.87 655.72 511.55H655.7Z" fill="white"/>
<path d="M732.93 482.01V540.98H717.53V532.77H717.19C715.21 535.96 712.61 538.4 709.38 540.07C706.15 541.74 702.74 542.58 699.17 542.58C691.03 542.58 685.4 540.53 682.29 536.42C679.17 532.31 677.61 526.27 677.61 518.28V482.01H693.81V515.32C693.81 520.27 694.61 523.92 696.21 526.27C697.81 528.63 700.47 529.81 704.19 529.81C708.6 529.81 711.79 528.48 713.77 525.82C715.75 523.16 716.74 518.86 716.74 512.93V482.02H732.94L732.93 482.01Z" fill="white"/>
<path d="M798.17 482.01V561.74H781.97V533.56H781.74C779.99 536.6 777.42 538.86 774.04 540.35C770.66 541.83 767.02 542.57 763.15 542.57C760.26 542.57 757.43 542.02 754.65 540.92C751.87 539.82 749.21 538.13 746.67 535.84C744.12 533.56 742.07 530.35 740.51 526.2C738.95 522.06 738.17 517.28 738.17 511.88C738.17 503.14 740.47 495.7 745.07 489.58C749.67 483.46 756.19 480.4 764.63 480.4C773.07 480.4 779.12 483.44 782.54 489.52H782.77V481.99H798.17V482.01ZM757.85 498.04C755.53 501.65 754.37 506.16 754.37 511.56C754.37 516.96 755.47 521.45 757.68 525.02C759.89 528.59 763.46 530.38 768.4 530.38C773.34 530.38 776.84 528.63 779.12 525.13C781.4 521.63 782.54 517.18 782.54 511.78C782.54 506.38 781.42 502.03 779.18 498.26C776.94 494.5 773.46 492.61 768.74 492.61C763.8 492.61 760.16 494.42 757.85 498.03V498.04Z" fill="white"/>
<path d="M861.14 482.01V540.98H845.74V532.77H845.4C843.42 535.96 840.82 538.4 837.59 540.07C834.36 541.74 830.95 542.58 827.38 542.58C819.24 542.58 813.61 540.53 810.5 536.42C807.38 532.31 805.82 526.27 805.82 518.28V482.01H822.02V515.32C822.02 520.27 822.82 523.92 824.42 526.27C826.02 528.63 828.68 529.81 832.4 529.81C836.81 529.81 840 528.48 841.98 525.82C843.96 523.16 844.95 518.86 844.95 512.93V482.02H861.15L861.14 482.01Z" fill="white"/>
<path d="M924.79 515.43H882.24C882.7 525.39 887.52 530.37 896.73 530.37C899.85 530.37 902.62 529.59 905.06 528.03C907.49 526.47 908.98 524.71 909.51 522.73H923.77C919.44 535.96 910.23 542.58 896.17 542.58C886.97 542.58 879.65 539.71 874.21 533.97C868.77 528.23 866.05 520.76 866.05 511.56C866.05 502.36 868.84 495.15 874.43 489.26C880.02 483.37 887.26 480.42 896.16 480.42C905.74 480.42 913.08 483.84 918.18 490.69C923.27 497.53 925.48 505.79 924.8 515.44L924.79 515.43ZM882.24 505.16H908.59C907.83 500.9 906.44 497.74 904.43 495.69C902.41 493.64 899.51 492.61 895.7 492.61C891.06 492.61 887.71 493.92 885.66 496.55C883.61 499.17 882.47 502.04 882.24 505.16Z" fill="white"/>
<path d="M929.81 540.98V482.01H945.21V492.96H945.44C946.96 489.24 949.47 486.21 952.97 483.89C956.47 481.57 960.23 480.41 964.26 480.41C965.32 480.41 966.5 480.6 967.8 480.98V496.04C966.13 495.66 964.19 495.47 961.98 495.47C951.33 495.47 946.01 501.78 946.01 514.41V540.99H929.81V540.98Z" fill="white"/>
<path d="M1025.05 482.01V561.74H1008.85V533.56H1008.62C1006.87 536.6 1004.3 538.86 1000.92 540.35C997.541 541.83 993.901 542.57 990.031 542.57C987.141 542.57 984.311 542.02 981.531 540.92C978.751 539.82 976.091 538.13 973.541 535.84C970.991 533.56 968.941 530.35 967.381 526.2C965.821 522.06 965.041 517.28 965.041 511.88C965.041 503.14 967.341 495.7 971.941 489.58C976.541 483.46 983.061 480.4 991.501 480.4C999.941 480.4 1005.99 483.44 1009.41 489.52H1009.64V481.99H1025.04L1025.05 482.01ZM984.731 498.04C982.411 501.65 981.251 506.16 981.251 511.56C981.251 516.96 982.351 521.45 984.561 525.02C986.771 528.59 990.341 530.38 995.281 530.38C1000.22 530.38 1003.72 528.63 1006 525.13C1008.28 521.63 1009.42 517.18 1009.42 511.78C1009.42 506.38 1008.3 502.03 1006.05 498.26C1003.81 494.5 1000.33 492.61 995.611 492.61C990.891 492.61 987.041 494.42 984.721 498.03L984.731 498.04Z" fill="white"/>
<path d="M1088.02 482.01V540.98H1072.62V532.77H1072.28C1070.3 535.96 1067.7 538.4 1064.47 540.07C1061.24 541.74 1057.83 542.58 1054.26 542.58C1046.12 542.58 1040.5 540.53 1037.38 536.42C1034.26 532.31 1032.7 526.27 1032.7 518.28V482.01H1048.9V515.32C1048.9 520.27 1049.7 523.92 1051.3 526.27C1052.9 528.63 1055.56 529.81 1059.28 529.81C1063.69 529.81 1066.88 528.48 1068.86 525.82C1070.84 523.16 1071.83 518.86 1071.83 512.93V482.02H1088.03L1088.02 482.01Z" fill="white"/>
<path d="M1151.67 515.43H1109.12C1109.58 525.39 1114.41 530.37 1123.61 530.37C1126.73 530.37 1129.5 529.59 1131.94 528.03C1134.37 526.47 1135.86 524.71 1136.39 522.73H1150.65C1146.32 535.96 1137.11 542.58 1123.05 542.58C1113.85 542.58 1106.53 539.71 1101.09 533.97C1095.65 528.23 1092.93 520.76 1092.93 511.56C1092.93 502.36 1095.72 495.15 1101.31 489.26C1106.9 483.37 1114.14 480.42 1123.04 480.42C1132.62 480.42 1139.96 483.84 1145.06 490.69C1150.15 497.53 1152.36 505.79 1151.68 515.44L1151.67 515.43ZM1109.12 505.16H1135.47C1134.71 500.9 1133.32 497.74 1131.31 495.69C1129.29 493.64 1126.39 492.61 1122.58 492.61C1117.94 492.61 1114.59 493.92 1112.54 496.55C1110.49 499.17 1109.35 502.04 1109.12 505.16Z" fill="white"/>
<path d="M698.78 622.68H675.84C675.84 625.72 676.68 628.44 678.35 630.83C680.03 633.22 682.46 634.41 685.66 634.41C690.63 634.41 693.75 631.87 695.02 626.78H698.66C697 633.91 692.67 637.47 685.66 637.47C681.19 637.47 677.83 635.99 675.58 633.02C673.33 630.05 672.2 626.28 672.2 621.69C672.2 618.92 672.64 616.39 673.53 614.09C674.42 611.8 675.91 609.86 678.01 608.28C680.11 606.7 682.66 605.91 685.67 605.91C688.68 605.91 691.27 606.74 693.33 608.39C695.39 610.05 696.85 612.11 697.69 614.57C698.54 617.04 698.9 619.73 698.79 622.66L698.78 622.68ZM675.84 619.62H695.14C695.06 616.73 694.16 614.24 692.42 612.14C690.69 610.04 688.43 608.99 685.66 608.99C682.89 608.99 680.59 610.02 678.9 612.08C677.2 614.14 676.18 616.66 675.84 619.62Z" fill="white"/>
<path d="M709.41 636.6V606.78H713.05V611.92H713.17C713.86 610.15 715.1 608.71 716.87 607.59C718.64 606.47 720.59 605.91 722.71 605.91C726.72 605.91 729.54 606.88 731.18 608.83C732.82 610.78 733.64 613.63 733.64 617.41V636.59H730V617.98C730 611.97 727.48 608.97 722.43 608.97C719.58 608.97 717.33 609.92 715.67 611.83C714.01 613.74 713.15 616.19 713.07 619.2V636.59H709.43L709.41 636.6Z" fill="white"/>
<path d="M771.47 606.79V634.18C771.47 638.84 770.43 642.39 768.35 644.84C766.27 647.29 762.9 648.51 758.24 648.51C754.97 648.51 752.14 647.75 749.77 646.23C747.4 644.71 746.1 642.46 745.87 639.5H749.51C749.86 641.54 750.84 643.04 752.46 644.01C754.08 644.98 756 645.46 758.24 645.46C761.55 645.46 763.98 644.51 765.52 642.63C767.06 640.74 767.83 637.93 767.83 634.19V630.15H767.71C766.86 632.04 765.6 633.53 763.93 634.63C762.25 635.73 760.36 636.28 758.24 636.28C753.69 636.28 750.31 634.87 748.1 632.06C745.88 629.25 744.78 625.55 744.78 620.97C744.78 616.69 745.98 613.12 748.39 610.25C750.8 607.38 754.08 605.95 758.24 605.95C760.36 605.95 762.27 606.52 763.99 607.65C765.7 608.79 766.95 610.22 767.72 611.95H767.84V606.81H771.48L771.47 606.79ZM758.24 633.2C761.24 633.2 763.59 632.03 765.29 629.7C766.98 627.37 767.83 624.59 767.83 621.35C767.83 618.11 767.03 615.15 765.43 612.68C763.83 610.22 761.43 608.98 758.24 608.98C755.05 608.98 752.56 610.18 750.9 612.59C749.24 615 748.42 617.92 748.42 621.34C748.42 624.76 749.26 627.41 750.93 629.72C752.61 632.03 755.04 633.19 758.24 633.19V633.2Z" fill="white"/>
<path d="M809.26 622.68H786.32C786.32 625.72 787.16 628.44 788.83 630.83C790.5 633.22 792.94 634.41 796.14 634.41C801.11 634.41 804.23 631.87 805.5 626.78H809.14C807.48 633.91 803.15 637.47 796.14 637.47C791.67 637.47 788.31 635.99 786.06 633.02C783.81 630.05 782.68 626.28 782.68 621.69C782.68 618.92 783.12 616.39 784.01 614.09C784.9 611.8 786.39 609.86 788.49 608.28C790.59 606.7 793.14 605.91 796.15 605.91C799.16 605.91 801.74 606.74 803.81 608.39C805.87 610.05 807.32 612.11 808.17 614.57C809.02 617.04 809.38 619.73 809.27 622.66L809.26 622.68ZM786.32 619.62H805.62C805.54 616.73 804.64 614.24 802.9 612.14C801.16 610.04 798.91 608.99 796.14 608.99C793.37 608.99 791.07 610.02 789.38 612.08C787.68 614.14 786.66 616.66 786.32 619.62Z" fill="white"/>
<path d="M819.9 636.6V606.78H823.54V611.92H823.66C824.35 610.15 825.59 608.71 827.36 607.59C829.13 606.47 831.08 605.91 833.2 605.91C837.21 605.91 840.03 606.88 841.67 608.83C843.31 610.78 844.13 613.63 844.13 617.41V636.59H840.49V617.98C840.49 611.97 837.97 608.97 832.92 608.97C830.07 608.97 827.82 609.92 826.16 611.83C824.5 613.74 823.64 616.19 823.56 619.2V636.59H819.92L819.9 636.6Z" fill="white"/>
<path d="M856.7 636.6V595.34H860.34V611.92H860.46C861.15 610.15 862.39 608.71 864.16 607.59C865.93 606.47 867.88 605.91 870 605.91C874.01 605.91 876.83 606.88 878.46 608.83C880.1 610.78 880.92 613.63 880.92 617.41V636.59H877.28V617.98C877.28 611.97 874.76 608.97 869.71 608.97C866.86 608.97 864.61 609.92 862.95 611.83C861.29 613.74 860.43 616.19 860.35 619.2V636.59H856.71L856.7 636.6Z" fill="white"/>
<path d="M896.86 615.92H893.22C893.41 612.53 894.58 610.02 896.72 608.38C898.86 606.74 901.72 605.92 905.3 605.92C912.62 605.92 916.28 609.12 916.28 615.51V631.34C916.28 632.8 916.99 633.54 918.42 633.54C918.84 633.54 919.23 633.46 919.58 633.31V636.37C918.81 636.52 918.02 636.6 917.21 636.6C915.51 636.6 914.38 636.17 913.8 635.3C913.22 634.43 912.93 633.13 912.93 631.4H912.81C911.38 633.52 909.89 635.06 908.33 636.02C906.77 636.98 904.64 637.47 901.94 637.47C899.01 637.47 896.61 636.74 894.75 635.27C892.88 633.81 891.95 631.63 891.95 628.74C891.95 627.66 892.1 626.69 892.41 625.82C892.72 624.95 893.07 624.22 893.48 623.62C893.88 623.02 894.52 622.49 895.39 622C896.26 621.52 897 621.15 897.62 620.9C898.24 620.65 899.17 620.41 900.42 620.18C901.67 619.95 902.63 619.79 903.28 619.69C903.93 619.59 904.99 619.47 906.46 619.31C907.11 619.23 907.62 619.18 907.96 619.14C909.65 618.99 910.86 618.65 911.57 618.13C912.28 617.61 912.64 616.6 912.64 615.1C912.64 612.83 911.95 611.24 910.56 610.33C909.17 609.42 907.27 608.97 904.84 608.97C902.41 608.97 900.54 609.54 899.12 610.67C897.69 611.81 896.94 613.55 896.87 615.9L896.86 615.92ZM912.64 625.05V620.31H912.52C912.21 620.89 911.19 621.33 909.46 621.64C908.8 621.76 907.76 621.92 906.34 622.13C904.91 622.34 903.82 622.52 903.05 622.65C902.28 622.79 901.35 623.02 900.25 623.34C899.15 623.67 898.32 624.03 897.77 624.41C897.22 624.79 896.71 625.34 896.27 626.06C895.83 626.77 895.61 627.59 895.61 628.52C895.61 630.29 896.26 631.72 897.57 632.8C898.88 633.88 900.44 634.42 902.25 634.42C905.18 634.42 907.64 633.56 909.65 631.85C911.65 630.14 912.65 627.87 912.65 625.06L912.64 625.05Z" fill="white"/>
<path d="M929.34 636.6V606.78H932.69V613.77H932.81C933.73 611.31 935.18 609.43 937.14 608.14C939.1 606.85 941.42 606.26 944.07 606.38V610.02C940.83 609.87 938.18 610.82 936.1 612.88C934.02 614.94 932.98 617.55 932.98 620.71V636.6H929.34Z" fill="white"/>
<path d="M953.37 601.18V595.34H957.01V601.18H953.37ZM953.37 636.6V606.78H957.01V636.6H953.37Z" fill="white"/>
<path d="M973.08 615.92H969.44C969.63 612.53 970.8 610.02 972.94 608.38C975.08 606.74 977.94 605.92 981.52 605.92C988.84 605.92 992.5 609.12 992.5 615.51V631.34C992.5 632.8 993.21 633.54 994.64 633.54C995.06 633.54 995.45 633.46 995.8 633.31V636.37C995.03 636.52 994.24 636.6 993.43 636.6C991.73 636.6 990.6 636.17 990.02 635.3C989.44 634.43 989.15 633.13 989.15 631.4H989.03C987.6 633.52 986.11 635.06 984.55 636.02C982.99 636.98 980.86 637.47 978.17 637.47C975.24 637.47 972.84 636.74 970.98 635.27C969.11 633.81 968.18 631.63 968.18 628.74C968.18 627.66 968.33 626.69 968.64 625.82C968.95 624.95 969.3 624.22 969.71 623.62C970.11 623.02 970.75 622.49 971.62 622C972.49 621.52 973.23 621.15 973.84 620.9C974.46 620.65 975.39 620.41 976.64 620.18C977.89 619.95 978.84 619.79 979.5 619.69C980.15 619.59 981.21 619.47 982.68 619.31C983.33 619.23 983.84 619.18 984.18 619.14C985.87 618.99 987.08 618.65 987.79 618.13C988.5 617.61 988.86 616.6 988.86 615.1C988.86 612.83 988.17 611.24 986.78 610.33C985.39 609.43 983.49 608.97 981.06 608.97C978.63 608.97 976.76 609.54 975.34 610.67C973.91 611.81 973.16 613.55 973.09 615.9L973.08 615.92ZM988.85 625.05V620.31H988.73C988.42 620.89 987.4 621.33 985.67 621.64C985.01 621.76 983.97 621.92 982.55 622.13C981.12 622.34 980.03 622.52 979.26 622.65C978.49 622.79 977.56 623.02 976.46 623.34C975.36 623.67 974.53 624.03 973.98 624.41C973.42 624.79 972.92 625.34 972.48 626.06C972.04 626.77 971.82 627.59 971.82 628.52C971.82 630.29 972.47 631.72 973.78 632.8C975.09 633.88 976.65 634.42 978.46 634.42C981.39 634.42 983.85 633.56 985.86 631.85C987.86 630.14 988.86 627.87 988.86 625.06L988.85 625.05Z" fill="white"/>
</svg>
