<svg width="628" height="189" viewBox="0 0 628 189" fill="none" xmlns="http://www.w3.org/2000/svg">
<path d="M18.04 40.6201H1.84C2.3 33.7001 5.15 28.6801 10.4 25.5601C15.65 22.4401 22.04 20.8801 29.56 20.8801C46.82 20.8801 55.45 26.4701 55.45 37.6501V68.3401C55.45 74.8801 56.13 79.25 57.5 81.46H41.07C40.39 79.33 40 77.43 39.93 75.76C35.29 80.63 28.67 83.0601 20.08 83.0601C14.15 83.0601 9.32 81.56 5.59 78.55C1.86 75.55 0 71.1601 0 65.3701C0 62.4801 0.510001 59.95 1.54 57.79C2.57 55.62 3.78 53.93 5.19 52.71C6.6 51.49 8.52 50.4501 10.95 49.5701C13.38 48.7001 15.49 48.11 17.28 47.8C19.07 47.5 21.37 47.1901 24.18 46.8901C29.96 46.2801 33.91 45.5402 36.04 44.6702C38.17 43.8002 39.23 42.14 39.23 39.71C39.23 36.59 38.32 34.4801 36.49 33.3801C34.67 32.2801 32.08 31.73 28.73 31.73C22.11 31.73 18.54 34.7001 18.01 40.6301L18.04 40.6201ZM39.26 58.6401V52.5901C37.97 53.8101 34.7 54.7602 29.45 55.4402C27.32 55.7402 25.65 56.03 24.43 56.3C23.21 56.57 21.88 57.0202 20.44 57.6702C18.99 58.3202 17.93 59.2101 17.25 60.3501C16.57 61.4901 16.22 62.9402 16.22 64.6802C16.22 69.7002 19.53 72.21 26.14 72.21C34.88 72.21 39.26 67.6801 39.26 58.6401Z" fill="#222222"/>
<path d="M63.8899 81.45V0H80.0899V81.45H63.8899Z" fill="#222222"/>
<path d="M88.3 81.45V0H104.5V29.6602H104.73C108.61 23.8002 114.81 20.8801 123.32 20.8801C129.86 20.8801 135.56 23.5401 140.43 28.8601C145.3 34.1801 147.73 41.8601 147.73 51.9001C147.73 61.9401 145.3 69.64 140.43 75C135.56 80.36 129.86 83.04 123.32 83.04C113.74 83.04 107.27 80.0002 103.93 73.9202H103.7V81.45H88.3ZM131.53 52.02C131.53 46.62 130.37 42.12 128.05 38.5C125.73 34.89 122.29 33.0801 117.73 33.0801C113.17 33.0801 109.73 34.89 107.41 38.5C105.09 42.11 103.93 46.62 103.93 52.02C103.93 57.42 105.11 61.8102 107.47 65.4202C109.83 69.0302 113.25 70.8401 117.74 70.8401C122.23 70.8401 125.65 69.0302 128.01 65.4202C130.37 61.8102 131.55 57.34 131.55 52.02H131.53Z" fill="#222222"/>
<path d="M208.76 22.48V81.45H193.36V73.24H193.02C191.04 76.43 188.44 78.87 185.21 80.54C181.98 82.21 178.57 83.05 175 83.05C166.86 83.05 161.23 81.0001 158.12 76.8901C155 72.7801 153.44 66.74 153.44 58.75V22.48H169.64V55.79C169.64 60.74 170.44 64.39 172.04 66.74C173.64 69.1 176.3 70.28 180.02 70.28C184.43 70.28 187.62 68.95 189.6 66.29C191.58 63.63 192.57 59.3301 192.57 53.4001V22.49H208.77L208.76 22.48Z" fill="#222222"/>
<path d="M274 22.48V102.21H257.8V74.03H257.57C255.82 77.07 253.25 79.3301 249.87 80.8201C246.49 82.3001 242.85 83.04 238.98 83.04C236.09 83.04 233.26 82.4901 230.48 81.3901C227.7 80.2901 225.04 78.6001 222.5 76.3101C219.95 74.0301 217.9 70.8202 216.34 66.6702C214.78 62.5302 214 57.7501 214 52.3501C214 43.6101 216.3 36.17 220.9 30.05C225.5 23.93 232.02 20.8701 240.46 20.8701C248.9 20.8701 254.95 23.91 258.37 29.99H258.6V22.46H274V22.48ZM233.68 38.51C231.36 42.12 230.2 46.63 230.2 52.03C230.2 57.43 231.3 61.92 233.51 65.49C235.71 69.06 239.29 70.8501 244.23 70.8501C249.17 70.8501 252.67 69.1001 254.95 65.6001C257.23 62.1001 258.37 57.65 258.37 52.25C258.37 46.85 257.25 42.5 255.01 38.73C252.77 34.97 249.29 33.0801 244.57 33.0801C239.63 33.0801 236 34.89 233.68 38.5V38.51Z" fill="#222222"/>
<path d="M336.97 22.48V81.45H321.57V73.24H321.23C319.25 76.43 316.65 78.87 313.42 80.54C310.19 82.21 306.78 83.05 303.21 83.05C295.07 83.05 289.44 81.0001 286.33 76.8901C283.21 72.7801 281.65 66.74 281.65 58.75V22.48H297.85V55.79C297.85 60.74 298.65 64.39 300.25 66.74C301.85 69.1 304.51 70.28 308.23 70.28C312.64 70.28 315.83 68.95 317.81 66.29C319.79 63.63 320.78 59.3301 320.78 53.4001V22.49H336.98L336.97 22.48Z" fill="#222222"/>
<path d="M400.62 55.9001H358.07C358.53 65.8601 363.35 70.8401 372.56 70.8401C375.68 70.8401 378.45 70.06 380.89 68.5C383.32 66.94 384.81 65.18 385.34 63.2H399.6C395.27 76.43 386.06 83.05 372 83.05C362.8 83.05 355.48 80.1802 350.04 74.4402C344.6 68.7002 341.88 61.23 341.88 52.03C341.88 42.83 344.67 35.62 350.26 29.73C355.85 23.84 363.09 20.8901 371.99 20.8901C381.57 20.8901 388.91 24.3102 394.01 31.1602C399.1 38.0002 401.31 46.2602 400.63 55.9102L400.62 55.9001ZM358.07 45.6301H384.42C383.66 41.3701 382.27 38.2102 380.26 36.1602C378.24 34.1102 375.34 33.0801 371.53 33.0801C366.89 33.0801 363.55 34.39 361.49 37.02C359.43 39.65 358.3 42.5101 358.07 45.6301Z" fill="#222222"/>
<path d="M405.64 81.45V22.48H421.04V33.4302H421.27C422.79 29.7102 425.3 26.6801 428.8 24.3601C432.3 22.0401 436.06 20.8801 440.09 20.8801C441.15 20.8801 442.33 21.07 443.63 21.45V36.51C441.96 36.13 440.02 35.9402 437.81 35.9402C427.16 35.9402 421.84 42.2501 421.84 54.8801V81.46H405.64V81.45Z" fill="#222222"/>
<path d="M500.88 22.48V102.21H484.68V74.03H484.45C482.7 77.07 480.13 79.3301 476.75 80.8201C473.37 82.3001 469.73 83.04 465.86 83.04C462.97 83.04 460.14 82.4901 457.36 81.3901C454.58 80.2901 451.92 78.6001 449.38 76.3101C446.83 74.0301 444.78 70.8202 443.22 66.6702C441.66 62.5302 440.88 57.7501 440.88 52.3501C440.88 43.6101 443.18 36.17 447.78 30.05C452.38 23.93 458.9 20.8701 467.34 20.8701C475.78 20.8701 481.83 23.91 485.25 29.99H485.48V22.46H500.88V22.48ZM460.56 38.51C458.24 42.12 457.08 46.63 457.08 52.03C457.08 57.43 458.18 61.92 460.39 65.49C462.59 69.06 466.17 70.8501 471.11 70.8501C476.05 70.8501 479.55 69.1001 481.83 65.6001C484.11 62.1001 485.25 57.65 485.25 52.25C485.25 46.85 484.13 42.5 481.88 38.73C479.64 34.97 476.16 33.0801 471.44 33.0801C466.72 33.0801 462.87 34.89 460.55 38.5L460.56 38.51Z" fill="#222222"/>
<path d="M563.85 22.48V81.45H548.45V73.24H548.11C546.13 76.43 543.53 78.87 540.3 80.54C537.07 82.21 533.66 83.05 530.09 83.05C521.95 83.05 516.33 81.0001 513.21 76.8901C510.09 72.7801 508.53 66.74 508.53 58.75V22.48H524.73V55.79C524.73 60.74 525.53 64.39 527.13 66.74C528.73 69.1 531.39 70.28 535.11 70.28C539.52 70.28 542.71 68.95 544.69 66.29C546.67 63.63 547.66 59.3301 547.66 53.4001V22.49H563.86L563.85 22.48Z" fill="#222222"/>
<path d="M627.5 55.9001H584.95C585.41 65.8601 590.23 70.8401 599.44 70.8401C602.56 70.8401 605.33 70.06 607.77 68.5C610.2 66.94 611.69 65.18 612.22 63.2H626.48C622.15 76.43 612.94 83.05 598.88 83.05C589.68 83.05 582.36 80.1802 576.92 74.4402C571.48 68.7002 568.76 61.23 568.76 52.03C568.76 42.83 571.55 35.62 577.14 29.73C582.73 23.84 589.97 20.8901 598.87 20.8901C608.45 20.8901 615.79 24.3102 620.89 31.1602C625.98 38.0002 628.19 46.2602 627.51 55.9102L627.5 55.9001ZM584.95 45.6301H611.3C610.54 41.3701 609.15 38.2102 607.14 36.1602C605.12 34.1102 602.22 33.0801 598.41 33.0801C593.77 33.0801 590.43 34.39 588.37 37.02C586.32 39.64 585.18 42.5101 584.95 45.6301Z" fill="#222222"/>
<path d="M174.61 163.15H151.67C151.67 166.19 152.51 168.91 154.18 171.3C155.86 173.69 158.29 174.88 161.49 174.88C166.46 174.88 169.58 172.34 170.85 167.25H174.49C172.83 174.38 168.5 177.94 161.49 177.94C157.02 177.94 153.66 176.46 151.41 173.49C149.16 170.52 148.03 166.75 148.03 162.16C148.03 159.39 148.47 156.86 149.36 154.56C150.25 152.27 151.74 150.33 153.84 148.75C155.94 147.17 158.49 146.38 161.5 146.38C164.51 146.38 167.09 147.21 169.16 148.86C171.22 150.52 172.67 152.58 173.52 155.04C174.37 157.51 174.73 160.2 174.62 163.13L174.61 163.15ZM151.67 160.09H170.97C170.89 157.2 169.99 154.71 168.25 152.61C166.52 150.51 164.26 149.46 161.49 149.46C158.72 149.46 156.42 150.49 154.73 152.55C153.03 154.61 152.01 157.13 151.67 160.09Z" fill="#222222"/>
<path d="M185.24 177.07V147.25H188.88V152.39H189C189.69 150.62 190.93 149.18 192.7 148.06C194.47 146.94 196.42 146.38 198.54 146.38C202.55 146.38 205.37 147.35 207.01 149.3C208.65 151.25 209.47 154.1 209.47 157.88V177.06H205.83V158.45C205.83 152.44 203.31 149.44 198.26 149.44C195.41 149.44 193.16 150.39 191.5 152.3C189.84 154.21 188.98 156.66 188.9 159.67V177.06H185.26L185.24 177.07Z" fill="#222222"/>
<path d="M247.3 147.26V174.65C247.3 179.31 246.26 182.86 244.18 185.31C242.1 187.76 238.73 188.98 234.07 188.98C230.8 188.98 227.97 188.22 225.6 186.7C223.23 185.18 221.93 182.93 221.7 179.97H225.34C225.69 182.01 226.67 183.51 228.29 184.48C229.91 185.45 231.83 185.93 234.07 185.93C237.38 185.93 239.81 184.98 241.35 183.1C242.89 181.21 243.66 178.4 243.66 174.66V170.62H243.54C242.69 172.51 241.43 174 239.76 175.1C238.08 176.2 236.19 176.75 234.07 176.75C229.52 176.75 226.14 175.34 223.93 172.53C221.71 169.72 220.61 166.02 220.61 161.44C220.61 157.16 221.81 153.59 224.22 150.72C226.63 147.85 229.91 146.42 234.07 146.42C236.19 146.42 238.1 146.99 239.82 148.12C241.53 149.26 242.78 150.69 243.55 152.42H243.67V147.28H247.31L247.3 147.26ZM234.07 173.67C237.07 173.67 239.42 172.5 241.12 170.17C242.81 167.84 243.66 165.06 243.66 161.82C243.66 158.58 242.86 155.62 241.26 153.15C239.66 150.69 237.26 149.45 234.07 149.45C230.88 149.45 228.39 150.65 226.73 153.06C225.07 155.47 224.25 158.39 224.25 161.81C224.25 165.23 225.09 167.88 226.76 170.19C228.44 172.5 230.87 173.66 234.07 173.66V173.67Z" fill="#222222"/>
<path d="M285.09 163.15H262.15C262.15 166.19 262.99 168.91 264.66 171.3C266.34 173.69 268.77 174.88 271.97 174.88C276.94 174.88 280.06 172.34 281.33 167.25H284.97C283.31 174.38 278.98 177.94 271.97 177.94C267.5 177.94 264.14 176.46 261.89 173.49C259.64 170.52 258.51 166.75 258.51 162.16C258.51 159.39 258.95 156.86 259.84 154.56C260.73 152.27 262.22 150.33 264.32 148.75C266.42 147.17 268.97 146.38 271.98 146.38C274.99 146.38 277.57 147.21 279.64 148.86C281.7 150.52 283.15 152.58 284 155.04C284.85 157.51 285.21 160.2 285.1 163.13L285.09 163.15ZM262.15 160.09H281.45C281.37 157.2 280.47 154.71 278.73 152.61C277 150.51 274.74 149.46 271.97 149.46C269.2 149.46 266.9 150.49 265.21 152.55C263.51 154.61 262.49 157.13 262.15 160.09Z" fill="#222222"/>
<path d="M295.73 177.07V147.25H299.37V152.39H299.49C300.18 150.62 301.42 149.18 303.19 148.06C304.96 146.94 306.91 146.38 309.03 146.38C313.04 146.38 315.86 147.35 317.5 149.3C319.14 151.25 319.96 154.1 319.96 157.88V177.06H316.32V158.45C316.32 152.44 313.8 149.44 308.75 149.44C305.9 149.44 303.65 150.39 301.99 152.3C300.33 154.21 299.47 156.66 299.39 159.67V177.06H295.75L295.73 177.07Z" fill="#222222"/>
<path d="M332.53 177.07V135.81H336.17V152.39H336.29C336.98 150.62 338.22 149.18 339.99 148.06C341.76 146.94 343.71 146.38 345.83 146.38C349.84 146.38 352.66 147.35 354.3 149.3C355.94 151.25 356.76 154.1 356.76 157.88V177.06H353.12V158.45C353.12 152.44 350.6 149.44 345.55 149.44C342.7 149.44 340.45 150.39 338.79 152.3C337.13 154.21 336.27 156.66 336.19 159.67V177.06H332.55L332.53 177.07Z" fill="#222222"/>
<path d="M372.69 156.39H369.05C369.24 153 370.41 150.49 372.55 148.85C374.69 147.21 377.55 146.39 381.13 146.39C388.45 146.39 392.11 149.59 392.11 155.98V171.81C392.11 173.27 392.82 174.01 394.25 174.01C394.67 174.01 395.06 173.93 395.41 173.78V176.84C394.64 176.99 393.85 177.07 393.04 177.07C391.34 177.07 390.21 176.64 389.63 175.77C389.05 174.9 388.76 173.6 388.76 171.87H388.64C387.21 173.99 385.72 175.53 384.16 176.49C382.6 177.45 380.47 177.94 377.77 177.94C374.84 177.94 372.44 177.21 370.58 175.74C368.71 174.28 367.78 172.1 367.78 169.21C367.78 168.13 367.93 167.16 368.24 166.29C368.55 165.42 368.9 164.69 369.31 164.09C369.71 163.49 370.35 162.96 371.22 162.47C372.09 161.99 372.83 161.62 373.44 161.37C374.06 161.12 374.99 160.88 376.24 160.65C377.49 160.42 378.44 160.26 379.1 160.16C379.75 160.06 380.81 159.94 382.28 159.78C382.93 159.7 383.44 159.65 383.78 159.61C385.47 159.46 386.68 159.12 387.39 158.6C388.1 158.08 388.46 157.07 388.46 155.57C388.46 153.3 387.77 151.71 386.38 150.8C384.99 149.89 383.09 149.44 380.66 149.44C378.23 149.44 376.36 150.01 374.94 151.14C373.51 152.28 372.76 154.02 372.69 156.37V156.39ZM388.46 165.52V160.78H388.34C388.03 161.36 387.01 161.8 385.28 162.11C384.62 162.23 383.58 162.39 382.16 162.6C380.73 162.81 379.64 162.99 378.87 163.12C378.1 163.26 377.17 163.49 376.07 163.81C374.97 164.14 374.14 164.5 373.59 164.88C373.03 165.26 372.53 165.81 372.09 166.53C371.65 167.24 371.43 168.06 371.43 168.99C371.43 170.76 372.08 172.19 373.39 173.27C374.7 174.35 376.26 174.89 378.07 174.89C381 174.89 383.46 174.03 385.47 172.32C387.47 170.61 388.47 168.34 388.47 165.53L388.46 165.52Z" fill="#222222"/>
<path d="M405.17 177.07V147.25H408.52V154.24H408.64C409.56 151.78 411.01 149.9 412.97 148.61C414.93 147.32 417.25 146.73 419.9 146.85V150.49C416.66 150.34 414.01 151.29 411.93 153.35C409.85 155.41 408.81 158.02 408.81 161.18V177.07H405.17Z" fill="#222222"/>
<path d="M429.2 141.65V135.81H432.84V141.65H429.2ZM429.2 177.07V147.25H432.84V177.07H429.2Z" fill="#222222"/>
<path d="M448.91 156.39H445.27C445.46 153 446.63 150.49 448.77 148.85C450.91 147.21 453.77 146.39 457.35 146.39C464.67 146.39 468.33 149.59 468.33 155.98V171.81C468.33 173.27 469.04 174.01 470.47 174.01C470.89 174.01 471.28 173.93 471.63 173.78V176.84C470.86 176.99 470.07 177.07 469.26 177.07C467.56 177.07 466.43 176.64 465.85 175.77C465.27 174.9 464.98 173.6 464.98 171.87H464.86C463.43 173.99 461.94 175.53 460.38 176.49C458.82 177.45 456.69 177.94 454 177.94C451.07 177.94 448.67 177.21 446.81 175.74C444.94 174.28 444.01 172.1 444.01 169.21C444.01 168.13 444.16 167.16 444.47 166.29C444.78 165.42 445.13 164.69 445.54 164.09C445.94 163.49 446.58 162.96 447.45 162.47C448.32 161.99 449.06 161.62 449.67 161.37C450.29 161.12 451.22 160.88 452.47 160.65C453.72 160.42 454.67 160.26 455.33 160.16C455.98 160.06 457.04 159.94 458.51 159.78C459.16 159.7 459.67 159.65 460.01 159.61C461.7 159.46 462.91 159.12 463.62 158.6C464.33 158.08 464.69 157.07 464.69 155.57C464.69 153.3 464 151.71 462.61 150.8C461.22 149.9 459.32 149.44 456.89 149.44C454.46 149.44 452.59 150.01 451.17 151.14C449.74 152.28 448.99 154.02 448.92 156.37L448.91 156.39ZM464.68 165.52V160.78H464.56C464.25 161.36 463.23 161.8 461.5 162.11C460.84 162.23 459.8 162.39 458.38 162.6C456.95 162.81 455.86 162.99 455.09 163.12C454.32 163.26 453.39 163.49 452.29 163.81C451.19 164.14 450.36 164.5 449.81 164.88C449.25 165.26 448.75 165.81 448.31 166.53C447.87 167.24 447.65 168.06 447.65 168.99C447.65 170.76 448.3 172.19 449.61 173.27C450.92 174.35 452.48 174.89 454.29 174.89C457.22 174.89 459.68 174.03 461.69 172.32C463.69 170.61 464.69 168.34 464.69 165.53L464.68 165.52Z" fill="#222222"/>
</svg>
