<svg width="630" height="278" viewBox="0 0 630 278" fill="none" xmlns="http://www.w3.org/2000/svg">
<path d="M47.82 113.89H4.84C6.05 95.5301 13.62 82.2099 27.54 73.9399C41.46 65.6699 58.41 61.5298 78.39 61.5298C124.19 61.5298 147.09 76.36 147.09 106.02V187.44C147.09 204.8 148.91 216.4 152.54 222.25H108.96C107.14 216.6 106.13 211.56 105.93 207.12C93.62 220.04 76.07 226.49 53.27 226.49C37.53 226.49 24.72 222.5 14.83 214.53C4.94 206.56 0 194.91 0 179.57C0 171.9 1.36 165.19 4.09 159.44C6.81 153.69 10.04 149.2 13.78 145.97C17.51 142.74 22.6 139.97 29.06 137.65C35.52 135.33 41.11 133.77 45.86 132.96C50.6 132.16 56.7 131.35 64.17 130.54C79.5 128.93 90 126.96 95.65 124.64C101.3 122.32 104.12 117.93 104.12 111.47C104.12 103.2 101.7 97.5999 96.86 94.6699C92.02 91.7499 85.16 90.2798 76.28 90.2798C58.73 90.2798 49.24 98.1501 47.83 113.89H47.82ZM104.11 161.71V145.67C100.68 148.9 92 151.42 78.08 153.24C72.43 154.05 67.99 154.81 64.76 155.51C61.53 156.22 58 157.43 54.17 159.14C50.33 160.86 47.51 163.23 45.7 166.25C43.89 169.27 42.98 173.11 42.98 177.75C42.98 191.07 51.76 197.73 69.31 197.73C92.51 197.73 104.12 185.73 104.12 161.71H104.11Z" fill="#222222"/>
<path d="M169.49 222.24V6.14014H212.47V222.24H169.49Z" fill="#222222"/>
<path d="M234.26 222.24V6.14014H277.24V84.8301H277.85C288.14 69.2901 304.58 61.5298 327.18 61.5298C344.53 61.5298 359.66 68.6002 372.58 82.7202C385.49 96.8402 391.95 117.22 391.95 143.86C391.95 170.5 385.49 190.92 372.58 205.15C359.66 219.38 344.53 226.49 327.18 226.49C301.76 226.49 284.6 218.42 275.73 202.28H275.12V222.26H234.26V222.24ZM348.97 144.15C348.97 129.83 345.89 117.87 339.74 108.28C333.58 98.6998 324.46 93.8999 312.35 93.8999C300.24 93.8999 291.11 98.6898 284.96 108.28C278.8 117.87 275.73 129.82 275.73 144.15C275.73 158.48 278.86 170.13 285.11 179.71C291.36 189.29 300.44 194.09 312.35 194.09C324.26 194.09 333.33 189.3 339.59 179.71C345.84 170.13 348.97 158.27 348.97 144.15Z" fill="#222222"/>
<path d="M559.62 65.77V277.33H516.64V202.57H516.03C511.39 210.64 504.58 216.64 495.6 220.58C486.62 224.51 476.99 226.48 466.7 226.48C459.03 226.48 451.51 225.01 444.15 222.09C436.78 219.17 429.72 214.67 422.96 208.62C416.2 202.57 410.75 194.05 406.62 183.05C402.48 172.05 400.42 159.39 400.42 145.07C400.42 121.87 406.52 102.14 418.73 85.8999C430.94 69.6599 448.24 61.54 470.64 61.54C493.04 61.54 509.08 69.61 518.16 85.75H518.76V65.77H559.62ZM452.63 108.29C446.47 117.88 443.4 129.83 443.4 144.16C443.4 158.49 446.32 170.39 452.18 179.87C458.03 189.36 467.51 194.09 480.63 194.09C493.75 194.09 503.03 189.45 509.08 180.17C515.13 170.89 518.16 159.09 518.16 144.76C518.16 130.43 515.18 118.88 509.23 108.89C503.28 98.9001 494.04 93.9102 481.54 93.9102C469.04 93.9102 458.79 98.7 452.64 108.29H452.63Z" fill="#222222"/>
<path d="M581.71 222.24V175.63H629.23V222.24H581.71Z" fill="#222222"/>
<path d="M334.14 20.2798H317.11C317.11 22.5398 317.73 24.5501 318.98 26.3301C320.23 28.1101 322.03 28.9902 324.4 28.9902C328.09 28.9902 330.4 27.1001 331.35 23.3301H334.05C332.82 28.6201 329.6 31.2598 324.4 31.2598C321.08 31.2598 318.59 30.16 316.92 27.96C315.25 25.76 314.41 22.9598 314.41 19.5498C314.41 17.4898 314.74 15.6102 315.4 13.9102C316.06 12.2102 317.17 10.7701 318.72 9.6001C320.28 8.4301 322.17 7.83984 324.4 7.83984C326.63 7.83984 328.55 8.46018 330.08 9.68018C331.61 10.9102 332.69 12.44 333.32 14.27C333.95 16.1 334.22 18.1 334.13 20.27L334.14 20.2798ZM317.11 18.0098H331.43C331.37 15.8698 330.7 14.02 329.41 12.46C328.12 10.9 326.45 10.1201 324.39 10.1201C322.33 10.1201 320.63 10.8902 319.37 12.4102C318.11 13.9402 317.35 15.7998 317.1 18.0098H317.11Z" fill="#222222"/>
<path d="M342.03 30.6201V8.49023H344.73V12.3101H344.82C345.33 11.0001 346.25 9.91984 347.56 9.08984C348.87 8.25984 350.32 7.8501 351.89 7.8501C354.86 7.8501 356.96 8.57002 358.17 10.02C359.38 11.46 359.99 13.5901 359.99 16.3901V30.6299H357.29V16.8198C357.29 12.3598 355.42 10.1299 351.67 10.1299C349.55 10.1299 347.88 10.84 346.65 12.25C345.42 13.67 344.78 15.4902 344.72 17.7202V30.6299H342.02L342.03 30.6201Z" fill="#222222"/>
<path d="M388.08 8.49023V28.8198C388.08 32.2798 387.31 34.92 385.76 36.73C384.22 38.54 381.71 39.4502 378.26 39.4502C375.83 39.4502 373.74 38.8898 371.98 37.7598C370.22 36.6298 369.26 34.9698 369.09 32.7598H371.79C372.05 34.2698 372.78 35.3901 373.98 36.1001C375.18 36.8101 376.61 37.1699 378.27 37.1699C380.73 37.1699 382.53 36.4698 383.67 35.0698C384.81 33.6698 385.39 31.5801 385.39 28.8101V25.8101H385.3C384.67 27.2101 383.73 28.3199 382.49 29.1299C381.25 29.9399 379.84 30.3501 378.27 30.3501C374.9 30.3501 372.39 29.3102 370.74 27.2202C369.1 25.1302 368.27 22.3902 368.27 18.9902C368.27 15.8202 369.16 13.1698 370.95 11.0298C372.74 8.89979 375.17 7.83984 378.26 7.83984C379.83 7.83984 381.25 8.2601 382.53 9.1001C383.8 9.9401 384.72 11.0098 385.3 12.2998H385.39V8.47998H388.09L388.08 8.49023ZM378.26 28.0898C380.49 28.0898 382.23 27.23 383.49 25.5C384.75 23.77 385.38 21.7098 385.38 19.2998C385.38 16.8898 384.79 14.7001 383.6 12.8701C382.41 11.0401 380.63 10.1201 378.26 10.1201C375.89 10.1201 374.04 11.0098 372.81 12.7998C371.58 14.5898 370.97 16.7498 370.97 19.2998C370.97 21.8498 371.59 23.8 372.84 25.52C374.08 27.24 375.89 28.0898 378.26 28.0898Z" fill="#222222"/>
<path d="M416.13 20.2798H399.1C399.1 22.5398 399.72 24.5501 400.97 26.3301C402.22 28.1101 404.02 28.9902 406.39 28.9902C410.08 28.9902 412.39 27.1001 413.34 23.3301H416.04C414.81 28.6201 411.59 31.2598 406.39 31.2598C403.07 31.2598 400.58 30.16 398.91 27.96C397.24 25.76 396.4 22.9598 396.4 19.5498C396.4 17.4898 396.73 15.6102 397.39 13.9102C398.05 12.2102 399.16 10.7701 400.71 9.6001C402.27 8.4301 404.16 7.83984 406.39 7.83984C408.62 7.83984 410.54 8.46018 412.07 9.68018C413.6 10.9102 414.68 12.44 415.31 14.27C415.94 16.1 416.21 18.1 416.12 20.27L416.13 20.2798ZM399.1 18.0098H413.42C413.36 15.8698 412.69 14.02 411.4 12.46C410.11 10.9 408.44 10.1201 406.38 10.1201C404.32 10.1201 402.62 10.8902 401.36 12.4102C400.1 13.9402 399.34 15.7998 399.09 18.0098H399.1Z" fill="#222222"/>
<path d="M424.02 30.6201V8.49023H426.72V12.3101H426.81C427.32 11.0001 428.24 9.91984 429.55 9.08984C430.86 8.25984 432.31 7.8501 433.88 7.8501C436.85 7.8501 438.95 8.57002 440.16 10.02C441.37 11.46 441.98 13.5901 441.98 16.3901V30.6299H439.28V16.8198C439.28 12.3598 437.41 10.1299 433.66 10.1299C431.54 10.1299 429.87 10.84 428.64 12.25C427.41 13.67 426.77 15.4902 426.71 17.7202V30.6299H424.01L424.02 30.6201Z" fill="#222222"/>
<path d="M451.34 30.6201V0H454.04V12.3101H454.13C454.64 11.0001 455.56 9.91984 456.87 9.08984C458.18 8.25984 459.63 7.8501 461.2 7.8501C464.17 7.8501 466.27 8.57002 467.48 10.02C468.69 11.46 469.3 13.5901 469.3 16.3901V30.6299H466.6V16.8198C466.6 12.3598 464.73 10.1299 460.98 10.1299C458.86 10.1299 457.19 10.84 455.96 12.25C454.73 13.67 454.09 15.4902 454.03 17.7202V30.6299H451.33L451.34 30.6201Z" fill="#222222"/>
<path d="M481.14 15.27H478.44C478.58 12.75 479.45 10.8899 481.03 9.66992C482.62 8.45992 484.74 7.8501 487.4 7.8501C492.83 7.8501 495.55 10.2202 495.55 14.9702V26.7202C495.55 27.8102 496.08 28.3501 497.14 28.3501C497.45 28.3501 497.74 28.2902 498 28.1802V30.4502C497.43 30.5702 496.84 30.6201 496.24 30.6201C494.98 30.6201 494.14 30.3002 493.71 29.6602C493.28 29.0202 493.07 28.05 493.07 26.77H492.98C491.92 28.34 490.81 29.4902 489.66 30.2002C488.5 30.9102 486.92 31.27 484.92 31.27C482.75 31.27 480.97 30.7301 479.58 29.6401C478.19 28.5501 477.5 26.94 477.5 24.79C477.5 23.99 477.61 23.2701 477.84 22.6201C478.07 21.9801 478.33 21.4302 478.63 20.9902C478.93 20.5502 479.4 20.15 480.05 19.79C480.69 19.43 481.24 19.1602 481.7 18.9702C482.16 18.7802 482.85 18.6102 483.78 18.4302C484.71 18.2602 485.42 18.1401 485.9 18.0601C486.39 17.9901 487.17 17.8998 488.26 17.7798C488.75 17.7198 489.12 17.6799 489.38 17.6499C490.64 17.5399 491.53 17.2899 492.06 16.8999C492.59 16.5099 492.85 15.7599 492.85 14.6499C492.85 12.9599 492.34 11.7799 491.31 11.1099C490.28 10.4399 488.87 10.1001 487.06 10.1001C485.25 10.1001 483.87 10.5201 482.81 11.3701C481.75 12.2101 481.19 13.51 481.14 15.25V15.27ZM492.85 22.0498V18.5298H492.76C492.53 18.9598 491.77 19.29 490.49 19.52C490 19.61 489.23 19.7301 488.17 19.8901C487.11 20.0501 486.3 20.1798 485.73 20.2798C485.16 20.3798 484.46 20.55 483.65 20.79C482.84 21.03 482.22 21.3001 481.81 21.5801C481.4 21.8701 481.02 22.2698 480.7 22.7998C480.37 23.3298 480.21 23.9401 480.21 24.6201C480.21 25.9401 480.7 26.99 481.67 27.79C482.64 28.59 483.8 28.9902 485.14 28.9902C487.31 28.9902 489.14 28.3501 490.63 27.0801C492.12 25.8101 492.86 24.13 492.86 22.04L492.85 22.0498Z" fill="#222222"/>
<path d="M505.24 30.6202V8.49036H507.73V13.6803H507.82C508.51 11.8503 509.58 10.4601 511.04 9.50012C512.5 8.54012 514.21 8.11007 516.19 8.19007V10.8903C513.79 10.7803 511.82 11.4799 510.27 13.0099C508.73 14.5399 507.95 16.4799 507.95 18.8199V30.61H505.25L505.24 30.6202Z" fill="#222222"/>
<path d="M523.08 4.33008V0H525.78V4.33008H523.08ZM523.08 30.6201V8.49023H525.78V30.6201H523.08Z" fill="#222222"/>
<path d="M537.71 15.27H535.01C535.15 12.75 536.02 10.8899 537.6 9.66992C539.19 8.45992 541.31 7.8501 543.97 7.8501C549.4 7.8501 552.12 10.2202 552.12 14.9702V26.7202C552.12 27.8102 552.65 28.3501 553.71 28.3501C554.02 28.3501 554.31 28.2902 554.57 28.1802V30.4502C554 30.5702 553.41 30.6201 552.81 30.6201C551.55 30.6201 550.71 30.3002 550.28 29.6602C549.85 29.0202 549.64 28.05 549.64 26.77H549.55C548.49 28.34 547.38 29.4902 546.23 30.2002C545.07 30.9102 543.49 31.27 541.49 31.27C539.32 31.27 537.54 30.7301 536.15 29.6401C534.76 28.5501 534.07 26.94 534.07 24.79C534.07 23.99 534.18 23.2701 534.41 22.6201C534.64 21.9801 534.9 21.4302 535.2 20.9902C535.5 20.5502 535.97 20.15 536.62 19.79C537.26 19.43 537.81 19.1602 538.27 18.9702C538.73 18.7802 539.42 18.6102 540.35 18.4302C541.28 18.2602 541.99 18.1401 542.47 18.0601C542.96 17.9901 543.74 17.8998 544.83 17.7798C545.32 17.7198 545.69 17.6799 545.95 17.6499C547.21 17.5399 548.1 17.2899 548.63 16.8999C549.16 16.5099 549.42 15.7599 549.42 14.6499C549.42 12.9599 548.91 11.7799 547.88 11.1099C546.85 10.4399 545.44 10.1001 543.63 10.1001C541.82 10.1001 540.44 10.5201 539.38 11.3701C538.32 12.2101 537.76 13.51 537.71 15.25V15.27ZM549.42 22.0498V18.5298H549.33C549.1 18.9598 548.34 19.29 547.06 19.52C546.57 19.61 545.8 19.7301 544.74 19.8901C543.68 20.0501 542.87 20.1798 542.3 20.2798C541.73 20.3798 541.03 20.55 540.22 20.79C539.41 21.03 538.79 21.3001 538.38 21.5801C537.97 21.8701 537.59 22.2698 537.27 22.7998C536.94 23.3298 536.78 23.9401 536.78 24.6201C536.78 25.9401 537.27 26.99 538.24 27.79C539.21 28.59 540.37 28.9902 541.71 28.9902C543.88 28.9902 545.71 28.3501 547.2 27.0801C548.69 25.8101 549.43 24.13 549.43 22.04L549.42 22.0498Z" fill="#222222"/>
</svg>
