<svg width="373" height="425" viewBox="0 0 373 425" fill="none" xmlns="http://www.w3.org/2000/svg">
<path d="M25.6099 146.2H5.18982C5.76982 137.48 9.35986 131.15 15.9799 127.21C22.5999 123.28 30.6499 121.31 40.1399 121.31C61.9099 121.31 72.7898 128.36 72.7898 142.45V181.14C72.7898 189.39 73.6499 194.9 75.3799 197.68H54.6698C53.8098 195 53.3299 192.6 53.2299 190.49C47.3799 196.63 39.0398 199.7 28.1998 199.7C20.7198 199.7 14.6298 197.81 9.92981 194.02C5.22981 190.23 2.87988 184.7 2.87988 177.41C2.87988 173.77 3.52982 170.58 4.81982 167.84C6.10982 165.11 7.6498 162.97 9.4198 161.44C11.1898 159.91 13.6098 158.59 16.6798 157.48C19.7498 156.38 22.4098 155.64 24.6598 155.25C26.9098 154.87 29.8099 154.48 33.3599 154.1C40.6499 153.33 45.6298 152.4 48.3198 151.3C50.9998 150.2 52.3499 148.11 52.3499 145.04C52.3499 141.11 51.1998 138.45 48.8998 137.06C46.5998 135.67 43.3399 134.97 39.1199 134.97C30.7799 134.97 26.2699 138.71 25.5999 146.19L25.6099 146.2ZM52.3599 168.92V161.3C50.7299 162.84 46.6099 164.03 39.9899 164.9C37.2999 165.28 35.1898 165.64 33.6598 165.98C32.1198 166.32 30.4499 166.89 28.6299 167.71C26.8099 168.53 25.4699 169.65 24.5999 171.09C23.7399 172.53 23.3098 174.35 23.3098 176.56C23.3098 182.89 27.4798 186.05 35.8198 186.05C46.8498 186.05 52.3599 180.35 52.3599 168.93V168.92Z" fill="white"/>
<path d="M83.4297 197.69V95H103.85V197.69H83.4297Z" fill="white"/>
<path d="M114.21 197.69V95H134.63V132.4H134.92C139.81 125.02 147.62 121.32 158.36 121.32C166.61 121.32 173.8 124.68 179.93 131.39C186.07 138.1 189.14 147.79 189.14 160.44C189.14 173.09 186.07 182.81 179.93 189.56C173.79 196.32 166.6 199.7 158.36 199.7C146.28 199.7 138.13 195.87 133.91 188.19H133.62V197.68H114.2L114.21 197.69ZM168.72 160.58C168.72 153.77 167.26 148.09 164.33 143.54C161.4 138.99 157.07 136.71 151.31 136.71C145.55 136.71 141.22 138.99 138.29 143.54C135.36 148.1 133.9 153.78 133.9 160.58C133.9 167.38 135.39 172.93 138.36 177.48C141.33 182.04 145.65 184.31 151.3 184.31C156.95 184.31 161.27 182.03 164.24 177.48C167.21 172.93 168.7 167.29 168.7 160.58H168.72Z" fill="white"/>
<path d="M266.09 123.33V197.69H246.67V187.33H246.24C243.75 191.36 240.46 194.43 236.39 196.54C232.31 198.65 228.02 199.7 223.52 199.7C213.26 199.7 206.16 197.11 202.23 191.93C198.3 186.75 196.33 179.13 196.33 169.06V123.32H216.75V165.32C216.75 171.55 217.76 176.16 219.77 179.13C221.78 182.1 225.14 183.59 229.84 183.59C235.4 183.59 239.43 181.91 241.92 178.56C244.41 175.2 245.66 169.79 245.66 162.31V123.33H266.08H266.09Z" fill="white"/>
<path d="M75.6599 223.55V324.09H55.24V288.56H54.95C52.74 292.4 49.51 295.25 45.24 297.12C40.97 298.99 36.39 299.92 31.5 299.92C27.85 299.92 24.2799 299.22 20.7899 297.83C17.2899 296.44 13.93 294.31 10.72 291.43C7.50997 288.55 4.91995 284.5 2.94995 279.28C0.979951 274.06 0 268.04 0 261.23C0 250.2 2.89995 240.83 8.69995 233.11C14.5 225.39 22.72 221.53 33.37 221.53C44.02 221.53 51.64 225.37 55.95 233.04H56.24V223.55H75.6599ZM24.8199 243.76C21.8899 248.32 20.4299 254 20.4299 260.8C20.4299 267.6 21.82 273.27 24.6 277.77C27.38 282.28 31.89 284.53 38.12 284.53C44.35 284.53 48.76 282.32 51.64 277.91C54.52 273.5 55.95 267.89 55.95 261.08C55.95 254.27 54.53 248.78 51.71 244.04C48.88 239.29 44.4899 236.92 38.5499 236.92C32.6099 236.92 27.7399 239.2 24.8099 243.75L24.8199 243.76Z" fill="white"/>
<path d="M155.06 223.55V297.91H135.64V287.55H135.21C132.72 291.58 129.43 294.65 125.36 296.76C121.28 298.87 116.99 299.92 112.49 299.92C102.23 299.92 95.1298 297.33 91.1998 292.15C87.2698 286.97 85.2998 279.35 85.2998 269.28V223.54H105.72V265.54C105.72 271.77 106.73 276.38 108.74 279.35C110.75 282.32 114.11 283.81 118.81 283.81C124.37 283.81 128.4 282.13 130.89 278.78C133.38 275.42 134.63 270.01 134.63 262.53V223.55H155.05H155.06Z" fill="white"/>
<path d="M235.31 265.69H181.66C182.24 278.25 188.32 284.53 199.93 284.53C203.86 284.53 207.36 283.55 210.43 281.58C213.5 279.62 215.37 277.39 216.04 274.89H234.02C228.55 291.57 216.95 299.92 199.21 299.92C187.61 299.92 178.38 296.3 171.52 289.06C164.66 281.82 161.24 272.4 161.24 260.8C161.24 249.2 164.76 240.11 171.81 232.68C178.86 225.25 187.99 221.53 199.21 221.53C211.29 221.53 220.54 225.85 226.97 234.48C233.39 243.11 236.18 253.51 235.31 265.69ZM181.66 252.75H214.88C213.92 247.38 212.17 243.4 209.63 240.81C207.09 238.22 203.42 236.93 198.63 236.93C192.78 236.93 188.56 238.58 185.97 241.89C183.38 245.2 181.94 248.82 181.66 252.75Z" fill="white"/>
<path d="M241.64 297.91V223.55H261.06V237.36H261.35C263.27 232.66 266.43 228.85 270.84 225.93C275.25 223.01 280 221.54 285.08 221.54C286.42 221.54 287.91 221.78 289.54 222.26V241.25C287.43 240.77 284.98 240.53 282.21 240.53C268.78 240.53 262.07 248.49 262.07 264.41V297.92H241.65L241.64 297.91Z" fill="white"/>
<path d="M75.6599 323.77V424.31H55.24V388.78H54.95C52.74 392.62 49.51 395.47 45.24 397.34C40.97 399.21 36.39 400.14 31.5 400.14C27.85 400.14 24.2799 399.44 20.7899 398.05C17.2899 396.66 13.93 394.53 10.72 391.65C7.50997 388.77 4.91995 384.72 2.94995 379.5C0.979951 374.28 0 368.26 0 361.45C0 350.42 2.89995 341.05 8.69995 333.33C14.5 325.61 22.72 321.75 33.37 321.75C44.02 321.75 51.64 325.59 55.95 333.26H56.24V323.77H75.6599ZM24.8199 343.98C21.8899 348.54 20.4299 354.22 20.4299 361.02C20.4299 367.82 21.82 373.49 24.6 377.99C27.38 382.5 31.89 384.75 38.12 384.75C44.35 384.75 48.76 382.54 51.64 378.13C54.52 373.72 55.95 368.11 55.95 361.3C55.95 354.49 54.53 349 51.71 344.26C48.88 339.51 44.4899 337.14 38.5499 337.14C32.6099 337.14 27.7399 339.42 24.8099 343.97L24.8199 343.98Z" fill="white"/>
<path d="M155.06 323.77V398.13H135.64V387.77H135.21C132.72 391.8 129.43 394.87 125.36 396.98C121.28 399.09 116.99 400.14 112.49 400.14C102.23 400.14 95.1298 397.55 91.1998 392.37C87.2698 387.19 85.2998 379.57 85.2998 369.5V323.76H105.72V365.76C105.72 371.99 106.73 376.6 108.74 379.57C110.75 382.54 114.11 384.03 118.81 384.03C124.37 384.03 128.4 382.35 130.89 379C133.38 375.64 134.63 370.23 134.63 362.75V323.77H155.05H155.06Z" fill="white"/>
<path d="M235.31 365.91H181.66C182.24 378.47 188.32 384.75 199.93 384.75C203.86 384.75 207.36 383.77 210.43 381.8C213.5 379.84 215.37 377.61 216.04 375.11H234.02C228.55 391.79 216.95 400.14 199.21 400.14C187.61 400.14 178.38 396.52 171.52 389.28C164.66 382.04 161.24 372.62 161.24 361.02C161.24 349.42 164.76 340.33 171.81 332.9C178.86 325.47 187.99 321.75 199.21 321.75C211.29 321.75 220.54 326.07 226.97 334.7C233.39 343.33 236.18 353.73 235.31 365.91ZM181.66 352.97H214.88C213.92 347.6 212.17 343.62 209.63 341.03C207.09 338.44 203.42 337.15 198.63 337.15C192.78 337.15 188.56 338.8 185.97 342.11C183.38 345.42 181.94 349.04 181.66 352.97Z" fill="white"/>
<path d="M315.7 21.8198C299.43 21.8198 286.24 35.0098 286.24 51.2798H264.42C264.42 22.9598 287.38 0 315.7 0V21.8198Z" fill="#CCCCCC"/>
<path d="M366.98 51.27C366.98 79.59 344.02 102.55 315.7 102.55C287.38 102.55 264.42 79.59 264.42 51.27H286.24C286.24 67.54 299.43 80.73 315.7 80.73C331.97 80.73 345.16 67.54 345.16 51.27H366.98Z" fill="#CCCCCC"/>
<path d="M372.79 80.73H315.7V102.55H372.79V80.73Z" fill="#CCCCCC"/>
<path d="M315.7 21.8198V51.27H345.16L315.7 21.8198Z" fill="#CCCCCC"/>
</svg>
